<?xml version="1.0" standalone="no"?>
<!DOCTYPE svg PUBLIC "-//W3C//DTD SVG 1.1//EN" "http://www.w3.org/Graphics/SVG/1.1/DTD/svg11.dtd" >
<svg xmlns="http://www.w3.org/2000/svg" xmlns:xlink="http://www.w3.org/1999/xlink" version="1.1">
<metadata></metadata>
<defs>
<font id="speedlineregular" horiz-adv-x="1064" >
<font-face units-per-em="2048" ascent="1638" descent="-410" />
<missing-glyph horiz-adv-x="512" />
<glyph horiz-adv-x="0" />
<glyph unicode="&#xd;" horiz-adv-x="512" />
<glyph unicode=" "  horiz-adv-x="512" />
<glyph unicode="&#x09;" horiz-adv-x="512" />
<glyph unicode="&#xa0;" horiz-adv-x="512" />
<glyph unicode="!" horiz-adv-x="921" d="M82 109q0 14 6 28q23 35 74 96q27 43 82 43q74 1 90 -65q6 -70 -45 -146.5t-86 -76.5q-18 2 -62 24q-59 31 -59 97zM260 424q0 49 64.5 180t183.5 318q102 162 170 317q6 12 -12 12t-62.5 -40t-48.5 -33q-12 25 66.5 105.5t148.5 80.5q18 0 35 -6q6 -8 16 -19.5t66 -46.5 q49 -29 59 -49q4 -20 4 -41q0 -86 -76 -229q-88 -170 -233 -336q-174 -199 -254 -322q-4 -6 -14 -6q-25 0 -65 28t-44 47t-4 40z" />
<glyph unicode="&#x22;" horiz-adv-x="634" d="M121 971q6 51 41 139q41 109 92 182q14 23 29.5 46.5t27.5 23.5q6 0 55.5 -35t49.5 -45q0 -12 -35 -51q-49 -55 -92 -125q-33 -53 -84 -160q-33 -70 -45 -69q-6 0 -13 6q-35 29 -26 88zM391 971q6 51 41 139q41 109 92 182q14 23 29.5 46.5t28.5 23.5q6 0 55 -35t49 -45 q0 -12 -35 -51q-49 -55 -92 -125q-33 -53 -84 -160q-33 -70 -45 -69q-6 0 -12 6q-35 29 -27 88z" />
<glyph unicode="#" horiz-adv-x="921" d="M70 733q31 111 116 164q-6 -12 -12 -25q-8 -16 0 -26q16 -14 41 -17q16 -2 41 0q27 4 27 5h20q12 43 39 124q-86 -10 -100 -10h-82q-43 6 -43 41q0 10 2 21q27 109 117 164q-6 -12 -13 -25q-8 -16 0 -27q16 -14 41 -16q16 -2 41 0q27 4 29 4t18 2h33l8 37q8 68 53 207 q84 -43 84 -139q0 -33 -8 -74q0 -4 -6 -17q53 6 154 17q4 16 20 106q8 57 31 101q84 -41 84 -140q0 -25 -4 -53q151 14 190 6q-57 -131 -219 -151q-2 0 -8 -2l-35 -131q4 2 8 2q53 4 107 10q55 4 98 -4q-57 -131 -219 -152q-2 0 -35 -4q-25 -100 -43 -158q-12 -41 -24 -81 q-20 -45 -58 -46q-8 0 -18 3q-29 4 -57.5 9t-28.5 36q0 20 10 55q14 18 55 129q6 14 13 33q-78 -10 -134 -17q-12 -49 -32 -114q-14 -45 -31 -88q-23 -45 -72 -37q-29 4 -56.5 10t-27.5 35q0 20 11 55q16 23 51 121l-53 -4q-82 0 -89 2q-45 10 -34 59zM444 846q23 4 71 9 t71 7q25 74 41 131q-47 -6 -150 -18q-10 -43 -33 -129z" />
<glyph unicode="$" horiz-adv-x="1075" d="M66 176q0 29 10 60q49 94 192 147q-4 -6 -59 -64q-37 -39 -33 -75q4 -41 84 -31q41 78 170 303q-109 4 -160 33q-23 10 -32 38.5t-18 55.5t-24.5 40t-17.5 19q-18 193 264 377q209 137 367 138q41 0 78 -9q100 127 123 121q8 -4 8 -10q0 -8 -11.5 -26.5t-13.5 -28.5 q-6 -33 -43 -74q2 0 11.5 -6t17.5 -34t18 -38q63 -63 64 -113q-1 -30 -21 -61q-31 -51 -61 -100q-43 -57 -98 -58q-14 0 -30.5 4t-35 27t-33.5 31q-6 2 42 58t48 81q0 14 -15 17t-30 3q-61 -96 -182 -299q49 -8 121 -43q86 -43 86 -77q0 -4 -2 -12.5t-2 -16.5 q0 -16 21.5 -61.5t21.5 -77.5q0 -35 -21 -74q-80 -158 -242.5 -247t-348.5 -85q-18 -49 -56 -149q0 -14 -2 -15q-31 0 -51 23.5t-20 56.5t26 101q-49 14 -79.5 60t-30.5 91zM391 240q45 14 117 43q88 51 100 59q57 43 58 94q0 13 -2 23q-57 43 -129 49q-68 -119 -144 -268z M418 731q6 -12 16 -12q31 0 113 -4q2 0 2 2q74 127 168 260q-20 -10 -172 -96q-123 -70 -127 -150z" />
<glyph unicode="%" d="M72 903q0 133 123 309q113 129 227 148q57 10 90 -31q27 -33 8 -74q58 -30 68 -75q10 -190 -176 -375q-86 -86 -154 -86q-23 0 -43 8q-10 4 -22.5 20.5t-20.5 20.5q-74 6 -96 80q-4 29 -4 55zM123 109q10 121 446 716q273 371 482 516q2 2 4 2q4 0 -8 -28 q-12 -35 -13 -47q-6 -53 -65 -119l-396 -524q-221 -295 -356 -592l-5 -11q-5 -12 -13 -12q-35 2 -56.5 32t-19.5 67zM190 877q0 -33 19 -50q20 -4 51 4q90 59 186 240q27 66 27 86q0 23 -12 37q-47 -23 -84 -61q-6 31 24 61q27 20 54 43q2 8 -11 8q-18 0 -16 0 q-176 -78 -233 -315q-4 -76 -5 -53zM489 190q0 133 123 310q113 129 228 147q57 10 90 -31q27 -33 8 -73q58 -31 68 -76q10 -190 -177 -375q-86 -86 -153 -86q-23 0 -43 8q-10 4 -22.5 20.5t-20.5 20.5q-74 6 -96 80q-4 29 -5 55zM608 164q0 -33 19 -49q20 -4 51 4 q90 59 186 239q27 66 27 86q0 23 -12 37q-47 -23 -84 -61q-6 31 24 61q27 20 53 43q2 8 -10 8q-18 0 -16 0q-176 -78 -234 -315q-4 -76 -4 -53z" />
<glyph unicode="&#x26;" horiz-adv-x="1208" d="M55 283q6 174 240 323q72 31 197 86q4 2 6 6q0 4 -6 7q-47 12 -98.5 27.5t-71.5 55.5q-10 18 -10.5 67.5t-12.5 68.5q-18 111 117 197.5t190 109.5q109 43 303 61q63 6 129 -16q78 -27 111 -84q2 -41 18 -117q-2 -92 -129 -139q-70 -27 -96 -27q-14 0 -27 4q10 12 82 56 q49 31 58 71q0 18 -19.5 24.5t-38.5 12.5q-248 4 -469 -147q-33 -39 -28 -53q37 -35 106 -46q59 -6 119 -12q8 0 34.5 1t37.5 -1q18 -2 16 -12q-2 -20 7 -60t9 -57q0 -33 -26 -51q-66 -31 -195 -92q-225 -113 -321 -234q-33 -84 -33 -90q0 -14 6 -28q16 -39 70 -39 q141 2 278 129q4 4 4 8q0 8 -32.5 12t-32.5 8q2 4 4 6q16 16 16 46q0 10 -2 26v25q0 35 25 51q45 29 127 35q68 4 135 6q59 2 157.5 -3t109.5 -12.5t11 -19.5q0 -8 -12 -30.5t-12 -32.5q2 -51 -41 -74q-35 -18 -94 -23q-82 -6 -99.5 -11t-15.5 -23v-31q-35 -121 -219 -223 q-123 -68 -238 -68q-88 0 -151 45q-39 29 -45 66q-152 86 -148 215z" />
<glyph unicode="'" horiz-adv-x="348" d="M121 971q6 51 41 139q41 109 92 182q14 23 29.5 46.5t27.5 23.5q6 0 55.5 -35t49.5 -45q0 -12 -35 -51q-49 -55 -92 -125q-33 -53 -84 -160q-33 -70 -45 -69q-6 0 -13 6q-35 29 -26 88z" />
<glyph unicode="(" horiz-adv-x="614" d="M90 96q0 307 174 738q80 197 168 354q143 254 234 254q53 0 53 -74q0 -57 -29 -102q-147 -227 -264 -561q-127 -365 -127 -615q0 -74 14 -178q12 6 19 6q27 0 26 -82q0 -55 -32.5 -102t-81.5 -47q-154 0 -154 409z" />
<glyph unicode=")" horiz-adv-x="614" d="M45 -242q0 57 29 103q147 227 264 561q127 365 127 614q0 74 -14 178q-12 -6 -19 -6q-27 0 -26 82q0 55 32.5 102.5t81.5 47.5q154 0 154 -410q0 -307 -174 -737q-80 -197 -168 -354q-143 -254 -234 -254q-53 0 -53 73z" />
<glyph unicode="*" horiz-adv-x="675" d="M172 991q0 10 4 23q14 27 154 106q-137 106 -125 107q18 25 74 51q35 8 116 -57q14 47 8 76.5t23 33.5q43 6 45 8q8 10 16 11q18 0 19 -60q0 -25 -4 -47q0 -4 -2 -12t-2 -10q55 29 69 53q14 18 25 18q8 0 17 -19.5t18.5 -20.5t9.5 -11q0 -14 -25.5 -43t-56.5 -45 q-14 -10 -53 -33q37 -29 90 -59q18 -2 18 -12q0 -6 -15 -27t-15 -31q2 -16 -19 -16q-45 0 -96 39l-16 8q-41 -170 -50 -164q-8 8 -33.5 8t-37.5 19q-10 14 14 137q-147 -86 -154 -86q-4 0 -2 7t-6 22.5t-8 25.5z" />
<glyph unicode="+" horiz-adv-x="921" d="M109 467q6 109 88 164q-10 -43 -4 -51q18 -14 51 -17q20 -2 51 0q35 4 33 4q37 0 61 2q0 10 6 82q0 4 2 107q0 57 15 100q115 -53 112 -213q0 -4 -2 -27v-36q59 4 74 8q51 4 104 10q56 4 101 -4q-35 -133 -193 -152q-25 -2 -90 -12q-2 -63 -8 -153l-12 -82 q-12 -45 -49 -45q-8 0 -19 2q-33 4 -63.5 11t-30.5 54q0 14 2 35q6 12 19.5 64.5t15.5 66.5t2 31q-92 -10 -133 -10q-82 0 -90 2q-45 10 -43 59z" />
<glyph unicode="," horiz-adv-x="552" d="M88 -106q57 68 84 124q-72 20 -72 64q0 57 56.5 117.5t113.5 60.5q95 0 95 -41q0 -37 -31 -105.5t-55 -99.5q-72 -90 -121 -112q-20 -8 -70 -8z" />
<glyph unicode="-" horiz-adv-x="696" d="M80 467q6 109 88 164q-10 -43 -4 -51q27 -18 78 -19q31 4 59 6q41 6 102 13q51 6 103 12q53 6 98 -2q-27 -119 -194 -154q-145 -31 -197 -30q-82 0 -90 2q-45 10 -43 59z" />
<glyph unicode="." horiz-adv-x="552" d="M88 72q0 55 47 123q53 76 119 75q10 0 20 -2q27 -6 56 -12q35 -12 35 -47q-51 -227 -160 -215q-117 12 -117 78z" />
<glyph unicode="/" horiz-adv-x="860" d="M63 -74q0 152 429 865q256 428 489 622q4 4 6 4q10 0 10 -106q0 -68 -67 -156l-383 -618q-141 -229 -213 -385q-47 -106 -117 -310q-14 -41 -35 -41q-51 0 -85 37t-34 88z" />
<glyph unicode="0" horiz-adv-x="1136" d="M51 293q0 270 248 622q217 250 453 297q119 10 182 -63q27 -33 27 -84q0 -35 -13 -64q117 -61 137 -149q18 -383 -354 -752q-170 -168 -303 -168q-45 0 -88 17q-23 8 -46.5 39.5t-39.5 40.5q-145 10 -195 157q-8 53 -8 107zM289 244q0 -66 39 -97q33 -10 102 9 q174 115 373 479q51 129 51 172t-23 74q-94 -43 -169 -123q-10 61 49 121q53 43 108 88q0 12 -10 16q-6 0 -21 -2q-16 -2 -22 0q-178 -78 -305 -258q-113 -162 -162 -371q0 -8 -6 -51q-4 -35 -4 -57z" />
<glyph unicode="1" horiz-adv-x="860" d="M78 59q0 49 65 183q57 115 230 420q147 260 217 419q6 12 -12 13q-18 0 -62.5 -40t-48.5 -34q-12 25 66.5 105.5t148.5 80.5q18 0 35 -6q6 -8 18 -22q29 -19 72 -72q4 -20 4 -41q0 -86 -76 -229q-117 -229 -233 -459q-137 -262 -256 -447q-4 -4 -13 -4q-29 0 -88 37 t-63 56.5t-4 39.5z" />
<glyph unicode="2" horiz-adv-x="1228" d="M55 94q12 53 68 107q47 41 92 82q113 98 315 241q236 166 310 226q129 102 121 174q-57 31 -134 30q-45 0 -217 -34q-100 -35 -123 -46q-68 -29 -110 -67q-6 -27 29 -27q25 -8 73.5 -8t69.5 -4q-25 -35 -168 -45q-88 8 -105 72q4 27 -7 70.5t-11 60.5q0 31 25 53 q219 195 548 195q63 0 127 -9q104 -31 152 -112q-4 -14 -4 -29q0 -33 28.5 -89t28.5 -89q0 -19 -6 -39q-31 -86 -110 -170q-47 -49 -160 -139q-76 -61 -221 -158q-176 -117 -230 -156q-10 -8 -10 -12q0 -10 57 -8q113 4 224 10q129 4 227 -2q10 0 10 -8q0 -6 -13 -27.5 t-11 -32.5q2 -12 2 -26q0 -86 -58 -107q-197 -37 -446 -37q-127 0 -301 11q-16 2 -27 39q-8 31 -14 61q-2 4 -13 25q-10 14 -8 24z" />
<glyph unicode="3" horiz-adv-x="1187" d="M53 86q0 39 30 96.5t38 46.5q92 -70 223 -69q154 0 291 86q63 51 55 88q2 18 -12 29.5t-29 21.5q-86 31 -215 49q-35 25 -35 64q0 25 17 67q20 51 22 64q324 39 492 233q6 10 6 21q0 14 -15.5 27.5t-29.5 25.5q-66 14 -139 14q-201 0 -324 -90q25 -27 80 -31q49 -4 98 -6 q-55 -57 -207 -43q-63 18 -84 78q-2 8 -12 39t-10 47q0 20 12 37q152 186 453 186q68 0 143 -10q76 -27 98 -39q55 -29 78 -71q18 -33 0 -101q53 -66 53 -117q0 -20 -6 -38q-33 -102 -151 -177q-104 -53 -211 -106q117 -68 141 -135q6 -41 6 -78q0 -121 -61 -184 q-180 -182 -477 -183q-125 0 -234 37q-84 59 -84 121z" />
<glyph unicode="4" horiz-adv-x="1126" d="M53 575q47 117 178 230q117 92 236 184q129 80 168 103q100 53 182 73q27 6 52.5 -31.5t33.5 -37.5q12 0 31.5 48t32.5 42q6 -8 82 -51q53 -31 53 -70q0 -19 -8 -39q-16 -39 -113 -235q-82 -162 -82 -185q0 -4 2 -6q33 -12 66.5 -27.5t42.5 -48.5q4 -23 -4 -53 q-10 -37 -11 -49q0 -16 9 -31q8 -16 -39 -16q-18 0 -62.5 3t-64.5 3q-39 0 -47 -8q-55 -76 -140 -228q-88 -164 -137 -233q-14 0 -46 25.5t-52 27.5q-37 0 -54 37q-6 86 37 186q18 39 93 168q-10 29 -27 17q-182 -12 -197 -13q-90 0 -159 23q-23 12 -25 61q-6 80 -7 84 t-14.5 21.5t-9.5 25.5zM332 582q84 -2 178 6q111 8 117 20q16 35 161 279q10 25 11 31q0 16 -27 6q-115 -76 -227 -154q-135 -92 -213 -170q-18 -18 0 -18z" />
<glyph unicode="5" horiz-adv-x="1228" d="M59 16q0 39 4 119q4 63 58 80q86 27 192 27q31 0 31 -6q-16 -10 -74 -23q-47 -12 -67 -35q-2 -4 -2 -8q0 -35 65 -33q330 14 475 195q12 25 -2 49q-61 37 -149 37q-33 0 -121 -10q-78 -6 -123 -5q-72 4 -63.5 33t-12 68t-20.5 57q0 20 14 39q25 47 107 145q74 90 98 146 q-90 29 -88 102q2 41 31.5 94.5t42.5 51.5q66 -14 161 -15q49 0 179 6q113 6 174 5q-4 0 159 0q89 1 95 -13q2 -6 2 -14q0 -14 -24.5 -34.5t-26.5 -35.5q-16 -66 -95 -100q-70 -16 -364 -35q-10 -14 -19.5 -52t-25.5 -52q-51 -63 -148 -195q104 -2 211 -4q125 -12 170 -98 q49 -94 49 -178q0 -61 -28 -113q-100 -139 -256 -215t-332 -76q-84 0 -168 19q-35 8 -74 33.5t-35 43.5z" />
<glyph unicode="6" horiz-adv-x="1085" d="M49 279q0 111 72 307q113 238 295 399q207 186 442 215q12 4 25 4q43 0 79.5 -40t69.5 -77q12 -14 12 -36q0 -53 -86 -158q-14 -18 -43 -35q-35 -20 -51 -14q8 14 49 67q37 43 37 64q0 12 -12 20q-25 10 -51 11q-57 0 -129 -48q-10 -6 -115 -86q-10 -12 -90 -94 q-57 -57 -82 -106q29 2 80 26q59 29 82 35q63 27 147 -8q25 -10 51.5 -62.5t61.5 -58.5q27 -49 27 -108q0 -80 -70 -228q-201 -307 -457 -338q-16 -4 -31 -4q-55 0 -119.5 68.5t-113.5 75.5q-80 78 -80 209zM254 193q0 -43 37 -70q14 -4 26 -4q41 0 91 33q43 29 84 55 q194 149 200 317q-10 41 -71 33q-240 -72 -330 -215q-2 -20 -19.5 -71.5t-17.5 -77.5z" />
<glyph unicode="7" horiz-adv-x="983" d="M47 946q-10 90 39 203q10 4 16 -6q8 -16 17 -19q143 -4 381 13q246 16 381 14q14 0 22 -39q12 -53 19.5 -60t17.5 -30q0 -72 -45 -148q-16 -25 -94 -126q-127 -162 -254 -322q-152 -195 -246 -334q-2 -4 -15.5 -27.5t-13.5 -35.5q0 -14 13 -27q35 4 82 35q70 41 75 45 q-23 -59 -86 -112.5t-133 -71.5q-45 12 -84 63q-51 70 -69 84q-8 84 67 221q279 414 490 643q2 4 4 6q0 10 -33 11q-319 -51 -448 -49q-80 14 -103 69z" />
<glyph unicode="8" horiz-adv-x="1126" d="M51 174q0 16 6 33q20 90 105 178q76 72 153 143q23 16 2 37q-100 100 -102 168q0 29 21 68q27 47 30 63q-4 16 0 47q49 127 199 185q49 18 276 65q41 4 80 4q186 1 254 -112q4 -14 4 -29q0 -29 -27.5 -77t-27.5 -75q0 -25 16 -49q4 -6 4 -12q0 -41 -135 -147 q-20 -20 -106 -74q-70 -43 -70 -60q0 -4 6 -8q184 -117 185 -252q0 -217 -330 -329q-141 -33 -225 -33q-156 0 -232 94q-4 29 -45 83t-41 89zM256 174q0 -8 6 -14q35 -33 96 -33q47 0 119 23q59 18 117 36q106 31 106 115q0 25 -65.5 63.5t-93.5 38.5q-45 0 -162 -90 q-123 -92 -123 -139zM418 768q-10 -29 47 -69t70 -33l243 145q145 88 131 94q-35 18 -86 19q-20 0 -133 -17q-231 -35 -272 -139z" />
<glyph unicode="9" horiz-adv-x="1085" d="M51 82q0 74 121 184q16 14 39 15q-20 -37 -43 -74q-25 -45 -25 -82q14 -25 39 -25q16 0 44 10.5t34 12.5q182 96 346 305q4 4 2 8q-4 4 -10 2q-131 -63 -197 -63q-59 0 -98 37q-23 41 -72 114q-8 14 -22 22.5t-21 18.5q-16 45 -16 90q0 96 72 205q39 59 139 172 q197 152 330 152q55 0 106 -21q8 -14 44 -39.5t75 -46.5q45 -28 59 -61q41 -90 41 -191q0 -215 -223 -520q-119 -162 -264 -264q-170 -121 -340 -127q-41 -6 -70 27q-8 6 -45 65q-12 10 -37 39q-8 14 -8 35zM399 590q6 -51 76 -47q141 23 275 145q92 86 92 215q0 33 -8 60 q-16 47 -62 47q-49 0 -127 -52q-254 -170 -246 -368z" />
<glyph unicode=":" horiz-adv-x="552" d="M88 72q0 55 47 123q53 76 119 75q10 0 20 -2q27 -6 56 -12q35 -12 35 -47q-51 -227 -160 -215q-117 12 -117 78zM307 508q0 61 53 131q61 80 134 66q27 -6 55 -11q35 -12 35 -47q-51 -229 -160 -217q-117 12 -117 78z" />
<glyph unicode=";" horiz-adv-x="552" d="M88 -106q57 68 84 124q-72 20 -72 64q0 57 56.5 117.5t113.5 60.5q95 0 95 -41q0 -37 -31 -105.5t-55 -99.5q-72 -90 -121 -112q-20 -8 -70 -8zM309 510q0 61 53 131q61 80 134 66q27 -6 55 -11q35 -14 35 -49q-53 -227 -160 -215q-117 12 -117 78z" />
<glyph unicode="&#x3c;" horiz-adv-x="921" d="M162 512q10 43 100 96q49 35 350 205q82 47 144 47q55 0 102 -39q-27 -25 -186 -125q-41 -20 -252 -157q-37 -23 -10 -45q86 -74 186 -158q37 -29 74 -59.5t59 -65.5q-63 -39 -119 -39q-61 0 -125 47q-109 80 -262 205q-23 20 -45 41.5t-16 46.5z" />
<glyph unicode="=" horiz-adv-x="921" d="M109 279q6 109 88 163q-10 -43 -4 -51q18 -14 51 -16q20 -2 51 0q35 4 33 4q43 0 151 10q102 8 117 12q51 4 104 11q56 4 101 -4q-35 -131 -193 -152q-303 -39 -366 -39q-82 0 -90 2q-45 10 -43 60zM109 537q6 109 88 163q-10 -43 -4 -51q18 -14 51 -16q20 -2 51 0 q35 4 33 4q43 0 151 10q102 8 117 12q51 4 104 11q56 4 101 -4q-35 -131 -193 -152q-303 -39 -366 -39q-82 0 -90 2q-45 10 -43 60z" />
<glyph unicode="&#x3e;" horiz-adv-x="921" d="M98 211q29 27 187 125q84 49 168 96q123 80 94 107q-127 119 -187 157q-37 29 -71 60q-41 31 -62 65q61 39 119 39q61 0 123 -47q111 -80 264 -205q70 -53 60 -96q-6 -25 -37 -46.5t-62 -41.5q-39 -27 -352 -205q-82 -47 -141 -47q-57 0 -103 39z" />
<glyph unicode="?" horiz-adv-x="1024" d="M63 1135q0 31 25 53q195 172 524 172q80 0 164 -10q104 -31 152 -113q-4 -14 -4 -29q0 -33 28.5 -89t28.5 -89q0 -19 -6 -39q-31 -86 -111 -170q-47 -49 -159 -139q-78 -53 -218 -166q-43 -51 -86 -104q-51 -59 -110 -60q-68 0 -68 78q0 51 26.5 111.5t53.5 85.5 q86 68 367 288q119 94 108 193q-78 41 -186 41q-76 0 -176 -21q-100 -35 -123 -45q-68 -29 -111 -67q-6 -27 29 -27q25 -8 74 -8t69 -4q-25 -35 -168 -45q-88 8 -104 72q4 27 -7.5 70.5t-11.5 60.5zM82 109q0 14 6 28q23 35 74 96q27 43 82 43q74 1 90 -65q6 -70 -45 -146.5 t-86 -76.5q-18 2 -62 24q-59 31 -59 97z" />
<glyph unicode="@" horiz-adv-x="1609" d="M104 541q0 43 7 88q39 317 299 528q252 203 571 203q254 0 401.5 -119t147.5 -336q0 -39 -4 -80q-23 -182 -156 -348q-150 -186 -328 -186q-180 0 -200 76q-10 8 -11 30q0 23 11.5 64t9.5 45q-2 2 -6 4q-14 0 -66 -49q-68 -66 -80 -74q-76 -55 -131 -55q-20 0 -41 6 q0 10 -28 39q-76 51 -66 102q4 55 17 78q111 270 411 434q57 31 121 31q98 0 121 -78v-26q0 -16 16 -15q16 2 38 21.5t32 23.5q72 4 98 -20q2 -4 -6 -19q-14 -18 -18 -26q-27 -55 -159 -244.5t-142 -212.5q-10 -20 45 -37.5t79 -13.5q137 0 248 157q96 139 115 295 q4 35 4 70q0 186 -131 287q-123 92 -332 92q-301 0 -508 -197q-195 -184 -227 -456q-6 -49 -6 -97q0 -227 147 -350q133 -111 365 -110q340 0 541 143l24 -39q-272 -180 -557 -180q-297 0 -477 145q-188 150 -189 406zM575 457q6 -14 33 2q94 57 240 168q172 133 205 192 q10 16 6 41q0 31 -43 25q-147 -41 -344 -256q-104 -113 -97 -172z" />
<glyph unicode="A" horiz-adv-x="1310" d="M31 86q2 78 53 162q45 72 92 143q-8 25 -56 38t-57 48q-4 16 -4 35q0 96 134 197q0 -2 -7 -25q-4 -14 4 -25q31 -22 82 -22q31 0 68 8q258 348 274 367q166 205 324 329q31 25 74 25q31 0 61 -14q4 -2 22.5 -18.5t28.5 -16.5q12 0 23 14q20 37 67 37q12 0 43 -4t48 -4 q14 0 26 2q14 4 15 -19q0 -29 -43 -161q-193 -588 -259 -1030q0 -49 35 -50q6 0 10.5 2t57.5 46q37 31 43 30l2 -2q0 -8 -35 -55q-107 -139 -203 -139h-10q-47 4 -96 39q-66 47 -76 124v15q0 54 12 133q16 121 19 149q-6 12 -21 13q-76 -2 -225 -17q-82 -12 -127 -96 q-127 -236 -258 -389q-8 -6 -12 -6q-10 0 -23.5 29.5t-30.5 35.5q-29 20 -75 72zM670 682q0 -8 6 -16q43 -2 137 -2q8 0 22.5 -5.5t18.5 -5.5q10 0 18 11q52 155 156 466q8 18 -4 19q-6 0 -14 -14q-61 -72 -165 -211.5t-159 -204.5q0 -6 -8 -18.5t-8 -18.5z" />
<glyph unicode="B" horiz-adv-x="1228" d="M14 127q0 39 52 156q72 164 213 391q221 352 237 381q4 8 4 12q0 12 -18 12q-20 0 -78 -18q-133 -41 -178 -74q-18 -18 -39 -37.5t-21 -38.5q0 -10 7 -22q27 -20 79 -53q-11 -1 -21 -1q-55 0 -101 27q-43 45 -44 121q0 66 29 127q260 258 699 258q43 0 88 -2 q195 -10 264 -143q8 -33 22 -97q6 -20 19.5 -33.5t15.5 -25.5q2 -15 2 -30q0 -202 -342 -378q-14 -20 19 -45q74 -18 118 -104q14 -45 15 -92q0 -117 -78 -221q-70 -92 -197 -146q-119 -51 -254 -51q-82 0 -155 20q-98 47 -99 138q0 14 -10 18t-16 -6q-33 -63 -68 -127 q-43 -82 -57 -82l-4 4q-8 33 -55.5 80t-47.5 82zM324 252q57 -39 120 -39q23 0 43 6q188 27 291 154q33 72 33 94q0 15 -6 27q-68 84 -236 90h-7q-65 0 -99 -35q-27 -27 -80 -115q-45 -76 -59 -106q-9 -20 -9 -39t9 -37zM586 721q0 -4 4 -4q55 6 131 47q63 33 127 67 q57 49 115 97q61 61 65 127q-4 47 -98 61q-80 6 -158 12q-37 0 -33 -18q1 -5 1 -12q0 -53 -70 -197q-84 -168 -84 -180z" />
<glyph unicode="C" horiz-adv-x="1126" d="M12 354q0 207 199 561q293 399 623 478q14 4 30 4q59 0 119 -45q47 -37 59 -66q6 -16 45.5 -32.5t47.5 -24.5q34 -36 34 -89q0 -54 -45 -159q-31 -74 -92 -135q-75 -77 -151 -77q-7 0 -15 1q-29 6 -63.5 29.5t-52.5 29.5q-4 2 -5 9q0 14 46 57q35 33 67 63 q117 123 117 183q0 10 -4 16q-27 20 -64 21q-70 0 -159 -64q-135 -96 -191 -176q-160 -231 -192 -287q-96 -174 -97 -325q0 -51 11 -101q20 -49 100 -61q127 12 283 104q127 82 253 162v-6q-1 -26 13 -67q16 -46 16 -64q0 -33 -24 -60q-203 -272 -476 -272q-41 0 -79 6 q-31 4 -66 31q-57 41 -59 43h-12q-71 0 -128 45q-88 117 -88 268z" />
<glyph unicode="D" horiz-adv-x="1228" d="M27 141q0 29 14 58q195 399 489 841q4 6 5 11q0 23 -33 16q-119 -25 -277 -113q-31 -31 -30 -45q0 -12 16 -26.5t49 -26.5q51 -16 55 -18q-13 -3 -32 -3q-39 0 -103 13q-20 4 -43.5 27.5t-21.5 46.5q6 115 8 127q16 74 70 108q254 197 581 197q197 0 350 -88 q49 -45 66 -90q10 -16 6 -56q-6 -43 -2 -53q22 -39 49 -125q1 -19 1 -38q0 -199 -150 -453q-291 -393 -576 -457q-31 -7 -58 -7q-55 0 -98 27q-16 16 -86 133q-6 8 -24 -4q-103 -172 -112 -172h-1q-35 37 -69 76q-43 49 -43 94zM344 272q0 -41 37 -69q13 -7 34 -7 q26 0 64 11q319 160 516 602q29 133 29 139q0 26 -8 49q-33 63 -119 84q-74 12 -147 23q-21 -2 -21 -21q0 -12 10 -32q-45 -168 -168 -377q-106 -178 -213 -355q-14 -25 -14 -47z" />
<glyph unicode="E" horiz-adv-x="1228" d="M-2 593q0 93 106 200q0 -14 -2 -31q0 -23 19 -27q35 -6 63 -6q36 0 60 10q39 51 90 138q78 133 82 141q-31 14 -62 29q-41 18 -45 53q-12 23 -12 51q0 45 45 121q63 76 127 112q0 -6 -7 -26.5t-7 -32.5q0 -18 16 -33q84 -10 184 -10q80 0 238 9t233 9q86 0 158 -8 q2 -6 2 -10q0 -10 -17.5 -23.5t-19.5 -25.5q-12 -39 -26 -78q-18 -47 -49 -58.5t-136 -35.5q-15 1 -32 1q-60 0 -150 -11q-137 -18 -186 -21q-14 0 -13 -20q4 -31 5 -33q-37 -68 -105 -205q-10 -16 -6 -20q2 -4 20 -2q31 -4 70 -5q33 0 98.5 3.5t96.5 3.5q63 0 102 -9 q-2 0 -35 -98q-29 -86 -90 -98q-80 -16 -209 -27q-145 -10 -209 -20q-82 -119 -108 -238q-1 -3 -1 -6q0 -26 70 -27q23 0 95 7q244 24 337 24h7q80 0 141 -10l2 -2q0 -2 -16.5 -18.5t-20.5 -30.5q-10 -41 -20 -80q-16 -49 -52 -62q-295 -59 -440 -59q-86 0 -170 12 q-35 6 -57.5 26.5t-34.5 49.5q-8 18 -16 37q-23 8 -68 55q-19 22 -19 51q0 6 1 13q8 70 81 245q-4 4 -63 39q-45 28 -45 67z" />
<glyph unicode="F" horiz-adv-x="1126" d="M18 113q0 49 48 149q35 78 71 156q2 8 23 39q14 23 10 43q-14 16 -59 26q-37 6 -48 37q-2 12 -2 27q0 94 115 192q6 -53 37 -53q27 -10 47 -10q35 0 63.5 29.5t94.5 139.5q55 93 55 116q0 4 -2 6q-49 27 -65 39q-33 25 -41 61q-2 25 -3 45q0 137 93 197q10 14 32 16 q35 6 37 6l-30 -55q-2 -6 -2 -12q0 -20 40 -35q92 2 320 14q203 12 317 12q97 0 181 -6q-10 -14 -43 -118q-20 -74 -80 -82q-88 -33 -250 -48q-201 -18 -256 -30q-16 -4 -16 -19q0 -6 3 -20t3 -23q0 -8 -4 -14q-33 -59 -76 -182q12 -25 47 -13q37 0 107.5 4.5t103.5 4.5 q68 0 119 -13q-31 -16 -64 -102q-29 -78 -96 -90q-59 -12 -190.5 -19.5t-192.5 -19.5q-20 -8 -29 -35q-10 -35 -13 -39t-81 -147q-49 -90 -59 -158q-6 -16 0 -33q6 -16 22 -16q39 2 86 31q70 41 78 45q-98 -137 -219 -201q-23 -10 -43 -10q-41 0 -92.5 55t-79.5 66 q-16 16 -17 47z" />
<glyph unicode="G" horiz-adv-x="1187" d="M20 336q0 131 52 262q102 268 307 473q229 231 491 275q11 1 21 1q84 0 129 -44q14 -29 106 -91q68 -44 68 -106v-10q1 -9 1 -18q0 -136 -146 -279q-25 -14 -52 -15q-25 0 -74 18.5t-75 18.5q43 63 88 127q42 69 42 129q0 8 -1 15q-19 28 -55 28h-2q-2 0 -64 -10 q-428 -227 -575 -725q-8 -49 -9 -90q0 -113 62 -152h5q335 0 335 289q0 8 -90 10q-39 0 -58 9q6 55 13 110q10 68 69 76q68 8 140 8q121 0 280 -29q49 -14 51 -14q29 -14 29 -43q0 -113 -16 -129q-2 -8 -37 -8q-25 0 -84.5 5t-75.5 5q-20 0 -18 -4q14 -41 14 -82 q0 -43 -19 -88q-76 -174 -260 -287q-72 -30 -127 -30h-4q-53 0 -104 22q-31 39 -123 45t-123 35q-111 104 -111 293z" />
<glyph unicode="H" horiz-adv-x="1454" d="M29 74q0 16 6 35q6 82 63 196q68 143 82 189q-33 14 -65 28q-39 18 -43 51q-2 12 -2 24q0 102 123 185q-6 -10 -7 -20q0 -33 66 -33h7q23 0 56 10q158 256 207 324q131 174 275 266q10 2 20 2q18 0 49 -12t62 -12q12 0 28 2q6 2 7 -2q0 -27 -161 -275t-161 -264 q0 -20 37 -16q78 10 144 10q72 0 130 -12q8 0 115 170q125 201 186 270q55 63 76 82q49 41 96 41q18 0 37 -6q8 -4 47 -7q29 0 27 -12q-41 -100 -264 -524q-139 -264 -281 -528q-2 -14 -14 -47t-12 -50q0 -23 14 -39h5q31 0 71 21q57 27 69 31q-53 -82 -163 -158 q-82 -57 -138 -57q-12 0 -26 4q-45 18 -86 82q-33 52 -33 75q0 73 67 226q78 172 91 213q2 6 -5.5 9t-7.5 5q-113 -12 -331 -37q-70 -90 -203 -356q-104 -213 -122 -213h-1q-12 23 -82 59q-55 31 -55 70z" />
<glyph unicode="I" horiz-adv-x="798" d="M31 129q0 68 32 154q29 74 60 147q252 532 516 866q74 61 98 62q18 0 37 -10q12 -10 44 -9.5t42 -7.5q-74 -197 -229 -500q-133 -258 -264 -514q-18 -47 -39 -94q-21 -52 -21 -95v-7q16 -16 33 -17q23 0 60.5 32t52.5 36q-29 -74 -99.5 -135.5t-152.5 -87.5q-6 -1 -12 -1 q-78 0 -152 120q-6 31 -6 61z" />
<glyph unicode="J" horiz-adv-x="1085" d="M18 268q0 49 11 101q43 227 192 239q10 -18 35 -18q16 0 44 7t36 7q12 0 12 -10q0 -14 -18 -49q-23 -72 -45 -144q-35 -109 -35 -165q0 -47 24 -66q24 -17 46 -17q19 0 36 11q109 109 185 307q63 174 125 348q53 129 104 258q66 147 137 246q25 35 72 35q12 0 35.5 -3 t34.5 -3q39 0 63 18q23 2 23 -14q0 -6 -5.5 -21.5t-5.5 -21.5q-106 -307 -213 -613q-133 -348 -276 -585q-96 -158 -262 -158q-25 0 -49 4q-33 6 -78 39t-66.5 33t-54.5 6q-106 59 -107 229z" />
<glyph unicode="K" horiz-adv-x="1351" d="M92 309q254 545 594 957q57 57 105 57q18 0 34 -6q10 -12 31 -12q6 0 20.5 2t20.5 2q20 0 29 -19q-96 -166 -289 -497q-6 -29 22 -29q246 143 451 313q133 111 289 250q6 6 33.5 -34t27.5 -56q0 -4 -2 -6q-10 -14 -10 -29q0 -6 2 -18.5t2 -18.5q0 -16 -10 -30 q-258 -371 -637 -547q-2 -2 -103 -43q113 -227 291 -377q14 -12 31 -12q18 0 59 24q20 20 54 56q-2 -72 -47.5 -150t-112.5 -111q-41 -20 -78 -20t-78 20q-66 23 -114 88q-39 61 -80 121q-37 51 -78 142q-53 123 -66 145q-2 4 -6 4q-2 0 -12 -12t-16 -17q-68 -127 -134 -253 q-80 -150 -149 -240q-4 -4 -8 -4q-8 0 -26.5 22.5t-25.5 26.5q-18 6 -53 31q-28 34 -28 81q0 54 67 199z" />
<glyph unicode="L" horiz-adv-x="921" d="M8 248q0 8 2 18q12 80 62 189l82 172q199 326 231 372q131 199 279 340q16 6 34 7q23 0 63 -17.5t62 -17.5q16 0 33 6q6 2 8 -4t-1 -14.5t-7 -14.5q-229 -371 -303 -493q-162 -274 -274 -498q-2 -8 -3 -17q0 -40 63 -40h3q61 0 199.5 12t210.5 12q57 0 104 -6q6 0 6 -16 q0 -45 -26 -107q-33 -72 -74 -84q-113 -35 -279 -43q-141 -2 -280 -6q-117 20 -127 108q-2 25 -35 69t-33 73z" />
<glyph unicode="M" horiz-adv-x="1843" d="M23 57q0 27 16 97q223 541 678 1069q29 18 58.5 37.5t58.5 19.5q20 0 40 -10q8 -2 19 -2q18 0 56 20q34 18 57 17h4q6 0 25.5 2t29.5 2q40 0 40 -30q0 -4 -1 -9q-25 -137 -84 -344q-86 -305 -92 -328q-8 -29 4 -29q4 2 8 6q219 272 330 394q197 213 379 336q54 36 96 36 h2q23 0 42 -10t32.5 -43t25.5 -43q33 -35 33 -88q0 -39 -18 -76q-121 -233 -242 -469q-135 -274 -190 -485q-4 -12 5 -23.5t25 -9.5q20 0 49 19q37 20 47 24q-47 -86 -165 -162q-25 -14 -52 -14q-55 0 -116 57q-43 41 -43 115q0 37 43 207q115 276 231 479q2 8 0 12 q-4 2 -11 -1t-13 -11q-94 -106 -390 -491q-262 -340 -274 -344t-21 -4q-27 0 -65 45q-18 29 -42 37t-26 10q-16 55 -16 125q0 88 29 211q23 92 45 184q31 94 71 278q-4 10 -20 0q-63 -92 -328 -561q-211 -377 -236 -377h-1q-6 4 -52 50q-33 33 -61 36q-20 2 -20 39z" />
<glyph unicode="N" horiz-adv-x="1413" d="M25 141q0 47 26 125q18 45 37 90q117 229 234 459q141 270 284 432q14 16 60.5 20.5t66.5 26.5q55 41 123 41q25 0 43 -8q6 -29 8 -22q-33 -305 -86 -910q0 -12 10 -14q12 -4 19 4q111 244 219 487q131 289 238 480q6 4 10 4q6 0 16 -20.5t21 -26.5q59 -35 86 -78v-9 q0 -87 -37 -194q-35 -96 -72 -192q-129 -367 -442 -840q-41 -61 -84 -62q-16 0 -25 15q-31 51 -92 88t-74.5 59.5t-21.5 97t-8 166.5q0 61 5 182.5t5 178.5q0 47 -2 86q0 6 -4 8q-8 0 -25 -35q-115 -254 -356 -760q-23 -45 -35 -45q-4 0 -8 2q-12 33 -58 60q-55 33 -68 50 t-13 54z" />
<glyph unicode="O" horiz-adv-x="1146" d="M20 342q0 127 54 289q270 598 760 729h13q173 0 218 -107q2 -12 2 -24q0 -27 -39 -133q47 -31 83 -86.5t36 -96.5q-6 -260 -133 -493q-123 -225 -334 -385q-106 -82 -225 -82q-39 0 -76 12q-4 2 -25.5 24.5t-63.5 26.5t-81 7q-45 6 -72 28q-117 102 -117 291zM276 324 q0 -70 3 -82q8 -43 45 -62q20 -4 41 -4q96 0 184 76q57 47 139 156q213 281 215 532q-16 16 -43 12q-20 -4 -56 -28.5t-54 -26.5q24 92 198 188q8 4 6 11q0 4 -6 4q-20 6 -43 6q-76 0 -205 -90q-365 -307 -424 -692z" />
<glyph unicode="P" horiz-adv-x="1187" d="M66 281q31 59 63 118q117 250 365 586q4 8 4 14q0 14 -21 15q-14 0 -43 -8q-68 -27 -133 -54q-80 -35 -121 -90q-2 -6 -2 -10q0 -18 72 -45q37 -4 37 -12q0 -14 -49 -15q-33 0 -99 27q-57 35 -57 154q0 31 4 38q80 156 281 230q106 37 368 76q29 4 68 4q264 0 360 -152 q20 -31 21 -72q0 -39 -23 -104q-2 -8 13 -31q16 -28 16 -51q0 -182 -131 -342q-117 -145 -299 -227q-55 -12 -105 -13q-76 0 -131 29q-20 16 -32 55q-16 47 -27 62q-4 8 -14 0q-10 -6 -13 -14q-14 -43 -110 -205q-72 -125 -76 -219q23 -29 55 -29q29 0 76 22q55 29 72 33 q-39 -61 -160 -117q-28 -13 -59 -13q-36 0 -76 18q-23 14 -54.5 51t-58.5 51q-24 39 -24 88q0 65 43 152zM537 594q0 -35 30 -45q23 -10 45 -10q29 0 131 53q254 196 254 374q0 46 -133 72q-61 12 -94 13q-45 0 -45 -23v-12q0 -90 -57 -199q-59 -98 -117 -196 q-14 -10 -14 -27z" />
<glyph unicode="Q" horiz-adv-x="1187" d="M84 584q88 238 262 434t399 305q55 27 117 27q125 0 207 -90q14 -20 14 -54q0 -41 -22 -102q-18 -49 -19 -49q90 -44 113 -191q-4 -260 -149 -497q-135 -219 -365 -375q-39 -20 -119 -33q4 -76 64 -104h6q32 0 67 18q31 23 62 45q-45 -147 -182 -194q-119 4 -162 45 q-55 72 -64 206q-18 8 -86 23q-55 10 -82 33q-108 108 -108 294q0 130 47 259zM299 219q0 -12 11.5 -25.5t19.5 -13.5q6 0 8 6q39 154 205 181q12 2 12 -11q0 -8 -21.5 -55t-21.5 -63q0 -10 8 -11q6 0 19 6q150 115 305 394q23 57 45 112q24 67 24 115q0 45 -16 78 q-23 23 -43 14q-31 -25 -90 -67q0 53 66.5 119.5t115.5 72.5q-16 20 -55 21q-68 0 -133 -45q-211 -147 -336 -359q-124 -211 -124 -435q0 -17 1 -34z" />
<glyph unicode="R" horiz-adv-x="1269" d="M27 145q0 12 4 25q78 209 245 467q150 221 297 444q4 6 -6 6q-27 0 -121 -35.5t-151 -66.5q-68 -49 -68 -78q0 -10 4 -18q16 -16 53.5 -25.5t47.5 -17.5q-25 -10 -58 -10q-74 0 -102 22q-63 66 -63 168q0 35 14 51q242 289 668 289q156 0 313 -43q137 -78 137 -154 q0 -18 -12 -67q-7 -29 -7 -50q0 -8 1 -16q2 -18 14 -30.5t12 -22.5q1 -12 1 -23q0 -235 -349 -411q-41 -20 -106 -39q-57 -14 -113 -29q125 -190 272 -284q28 -12 53 -12q37 0 66 26q12 16 47 45q-12 -74 -62 -158t-97 -106q-39 -12 -76 -12q-88 0 -178 77q-16 16 -140 154 q-41 61 -112 188q-8 8 -27 0q-113 -186 -283 -417q-6 -2 -12 -2q-16 0 -23.5 31.5t-19.5 39.5q-63 43 -63 94zM592 668q4 -6 8 -11q129 12 262 123q160 133 164 254q-2 35 -69.5 60.5t-137.5 25.5q-39 4 -39 -24q0 -8 5.5 -33t2.5 -35q-57 -123 -86 -174q-49 -96 -102 -168 q-8 -10 -8 -18z" />
<glyph unicode="S" horiz-adv-x="1126" d="M33 166q0 31 12 65q53 111 213 166q-4 -8 -65 -71q-39 -41 -39 -80q0 -41 67 -41q121 0 307 80q121 74 121 75q58 45 58 99q0 10 -2 20q-66 55 -220 64q-170 12 -223 39q-25 12 -36 44.5t-20 62.5t-26.5 45.5t-19.5 23.5q-1 13 -1 26q0 205 296 396q236 153 407 153h2 q90 0 170 -39q12 -8 21.5 -38.5t19.5 -41.5q72 -74 72 -127q0 -32 -23 -67q-117 -172 -254 -172q-25 0 -45 5t-42.5 32.5t-39.5 36.5q-1 0 -1 1q0 9 83 68q100 72 101 90q0 12 -49 13q-72 0 -164 -50q-72 -45 -146 -88q-137 -74 -141 -168q6 -14 20 -14q166 -2 252 -20 q141 -33 211 -125v-7q0 -26 11 -77q36 -80 36 -117q0 -39 -20 -78q-92 -174 -269.5 -273.5t-377.5 -99.5q-162 0 -221 86q-35 53 -35 103z" />
<glyph unicode="T" horiz-adv-x="819" d="M39 125q0 74 106 311q41 92 172 359q103 209 103 217q0 12 -160 14q-158 0 -197 102q-2 8 -2 19q0 39 43 123t76 84q4 0 4 -37q2 -23 11 -23q35 -1 74 -1q100 0 233 7q217 12 297 13q137 -1 256 -19q2 -2 2 -6q0 -6 -12.5 -50t-12.5 -69q0 -12 2 -20q-23 -59 -151 -80 q-106 -14 -215 -27q-14 -4 -15 -49q0 -53 -2 -59q-55 -152 -174 -404q-135 -287 -180 -399q-4 -23 3 -38t30 -13q27 2 65 22q53 29 64 33q-37 -68 -119 -127q-77 -55 -118 -55h-5q-119 27 -172 139q-6 12 -6 33z" />
<glyph unicode="U" horiz-adv-x="1269" d="M29 279q0 106 59 313q104 360 381 696q35 41 92 41q23 0 76 -10q44 -8 70 -8h10q10 -8 10 -23q0 -8 -31 -65q-131 -240 -262 -482q-141 -285 -158 -505q-2 -35 21 -35q66 0 205 159q170 195 358 488q156 252 314 504q16 2 47 -35l55 -23q33 -14 47 -37q0 -98 -47 -217 q-10 -27 -86 -186q-104 -221 -209 -442q-123 -256 -221 -430q-12 -16 -27 0q-29 31 -59.5 64.5t-30.5 70.5q0 12 3 23.5t12.5 40t9.5 40.5q0 16 -11 27q-6 2 -26 -12q-164 -233 -312 -293q-12 -6 -24 -6q-33 0 -96 71q-27 29 -55.5 35t-34.5 12q-80 82 -80 224z" />
<glyph unicode="V" horiz-adv-x="1187" d="M162 666q92 262 184 522q0 20 -18 20q-27 0 -68 -26q-8 -4 -48 -40t-46 -36q-4 2 -4 4q0 10 18 43q50 69 142 131q80 55 126 54q7 0 13 -1q51 -10 127 -112q10 -39 10 -80q0 -80 -43 -191q-37 -90 -74 -182q-10 -35 -110 -280q-68 -168 -82 -283q-2 -12 16 -16t31 8 q162 145 321 372q72 98 271 414q61 109 180 324q27 0 47 -40t49 -46q33 -33 33 -82q0 -35 -16 -90q-25 -70 -27 -84q-131 -309 -334 -570q-223 -285 -485 -442q-68 -41 -129 -41q-45 0 -56 31q-16 43 -94 92q-69 44 -69 83q0 160 135 544z" />
<glyph unicode="W" horiz-adv-x="1781" d="M53 182q0 14 3 50t1 55q47 180 142 442q147 412 155 436q10 18 2 35q-8 18 -26 19q-53 -4 -144 -86q-2 39 43 79q41 31 80 62q94 72 178 72q82 0 113 -80q6 -41 6 -82q0 -117 -61 -275q-53 -129 -107 -258q-39 -102 -119 -307q10 -10 13 -14q147 158 370 487 q236 350 361 492q12 8 22 8q16 0 41 -32t41 -34q63 -18 72 -69q-4 -139 -59 -330q-47 -162 -97 -326q-6 -37 -32 -131q-25 -82 -27 -127q8 -18 35 -4q317 383 614 1073q4 8 10 9q8 0 29 -26t35 -32q2 0 25 -4q16 -2 20 -16q12 -63 12 -131q0 -242 -147 -482 q-158 -258 -266 -391q-172 -209 -363 -311q-39 -20 -80 -21q-29 0 -37 15q-18 35 -100 80q-66 37 -66 96q2 102 29 231q27 109 51 219q-4 18 -28 0q-154 -242 -236 -346q-152 -188 -305 -274q-10 -4 -18 -4q-31 0 -73 69.5t-85 79.5q-27 31 -27 84z" />
<glyph unicode="X" horiz-adv-x="1372" d="M27 121q0 23 14 45q80 123 240 268q133 119 268 238q0 49 -2 137q-2 100 -2 139q0 238 71 373q20 29 90 40t91 50q12 4 12 -4q-8 -88 -8 -228q0 -120 6 -278q6 -23 33 0q168 135 381 295q216 165 232 165q1 0 1 -1q-2 -10 -2 -23q0 -26 8 -61q12 -61 13 -84 q0 -43 -27 -74q-197 -227 -596 -526q-12 -37 -12 -84q0 -51 14 -116q27 -124 37 -156q39 -115 92 -115q20 0 57 26q27 25 56 48q8 4 8 -2t-4 -17.5t-8 -17.5q-51 -70 -103 -140q-65 -73 -137 -73h-2q-16 0 -33 2q-86 16 -135 84q-37 53 -59 151q-16 80 -33 162q-8 10 -21 6 q-23 -6 -22 -6q-145 -133 -451 -397q-10 -8 -24 -2q-12 6 -13 18q6 14 6 31q0 20 -18 62t-18 65z" />
<glyph unicode="Y" horiz-adv-x="962" d="M43 1116q31 102 156 189q39 18 88 18q57 0 104 -25q70 -51 94 -151q14 -94 29 -186q1 -34 1 -89t-1 -131q0 -12 4 -14q6 -4 12 4q37 45 246 318q147 190 260 299q20 0 33 -27q18 -33 25 -39q32 -26 32 -79q0 -44 -16 -87q-104 -201 -326 -489q-264 -342 -344 -469 q-37 -72 -37 -95t15 -40q10 -2 20 -3q29 0 64 19q27 16 55 33q-6 -49 -65 -88l-106 -58q-35 -18 -73 -18q-22 0 -45 6q-127 94 -127 199q0 16 2 32q33 88 168 295q-35 262 -53 369q-37 205 -88 356q-6 16 -31 17q-23 0 -39 -17q-8 -12 -57 -49z" />
<glyph unicode="Z" horiz-adv-x="1228" d="M29 193q0 57 41 116q18 29 82 97q172 147 426 327q221 154 442 307q4 4 6 7q0 16 -41 14q-156 -2 -313 -6q-178 -6 -289 -41q-27 -14 -31 -51q-6 -57 -8 -62q-39 41 -39 115q0 53 35 186q37 80 145 96q90 10 183 21q74 3 142 3q227 0 378 -36q47 -23 52 -71t7 -95 q35 -57 35 -106q0 -41 -27 -70q-139 -147 -413 -336q-319 -219 -428 -315q-2 -6 -24.5 -17.5t-18.5 -29.5q39 -4 86 -4q45 0 134 5t132 5q117 0 201 -27q45 -29 45 -80q0 -16 -6 -32q-28 -47 -28 -92q0 -8 1 -17q-33 2 -72 2q-91 0 -217 -10q-205 -16 -282 -16 q-133 0 -244 24q-39 20 -49.5 93t-42.5 96z" />
<glyph unicode="[" horiz-adv-x="716" d="M106 -252l453 1686h543l-35 -125h-305l-383 -1434h305l-35 -127h-543z" />
<glyph unicode="\" horiz-adv-x="1024" d="M63 1311q0 106 11 106q2 -2 6 -4q233 -195 489 -622q428 -713 428 -865q0 -51 -33.5 -88t-84.5 -37q-20 0 -35 41q-70 203 -117 310q-72 156 -213 385l-383 618q-68 88 -68 156z" />
<glyph unicode="]" horiz-adv-x="716" d="M-102 -252l32 127h306l385 1434h-306l33 125h543l-451 -1686h-542z" />
<glyph unicode="^" horiz-adv-x="1024" d="M94 803q0 74 86 162q240 244 314 307q82 80 133 80q29 0 53 -29q18 -25 37 -51q26 -35 182 -307q31 -55 31 -103q0 -72 -72 -141q-35 29 -62.5 73t-52.5 87q-49 76 -147 219q-20 31 -53 0l-238 -219q-45 -43 -90 -87t-94 -73q-27 41 -27 82z" />
<glyph unicode="_" horiz-adv-x="921" d="M0 -180h922v-131h-922v131z" />
<glyph unicode="`" horiz-adv-x="675" d="M291 1047q0 14 8 51q16 76 72 67q29 -4 59 -22q102 -55 254 -152q43 -35 39 -86q-2 -16 -21 -16q-10 0 -79 29q-133 55 -258 81q-74 16 -74 48z" />
<glyph unicode="a" d="M49 231q102 352 463 562q66 38 146 38h4q127 0 167 -100l7 -35q4 -20 24 -18q23 2 45.5 27.5t36.5 31.5q13 1 25 1q74 0 104 -27q4 -6 -4 -23q-16 -27 -18 -35q-20 -55 -177 -325q-145 -250 -145 -283q0 -26 28 -26q10 0 25 4q29 14 71 54t58 52q-109 -174 -202 -215 q-8 -4 -17 -4q-12 0 -59 51q-12 18 -22.5 21.5t-22.5 5.5q-20 14 -21 59q0 25 8 74q6 39 2 45q-4 4 -8 4q-20 0 -78 -61q-76 -82 -90 -95q-89 -73 -157 -73h-2q-27 0 -54 8q-8 2 -16 20.5t-29 30.5q-102 62 -102 128q0 73 10 103zM223 133q0 -16 4 -31q8 -16 39 4 q160 102 309 234q212 184 212 272q0 6 -1 11q-5 33 -44 33q-7 0 -15 -1q-186 -53 -405 -329q-98 -123 -99 -193z" />
<glyph unicode="b" horiz-adv-x="921" d="M41 240q0 80 49 188q43 82 84 164q27 53 168 307q104 186 150 313q6 20 -17 21q-74 -14 -166 -98q12 59 71.5 108t127.5 60q5 1 11 1q37 0 73 -36q31 -31 42 -62.5t11 -66.5q0 -49 -53 -191q-47 -94 -133 -289q-2 -6 -2 -10q0 -6 6 -6q16 0 86 55q89 71 160 71q9 0 18 -1 q20 -2 34.5 -18.5t28 -33t28 -18.5t18.5 -6q43 -55 43 -131q0 -113 -93 -260q-94 -154 -217 -248q-141 -109 -283 -109q-13 0 -26 1q-45 2 -88 61q-51 68 -76 80q-55 68 -55 154zM205 104q12 -12 35 -8q37 8 36 8q135 66 247 195t151 270q0 18 -23 17q-70 -8 -157 -80 q-70 -57 -142 -117q-8 -6 -17 10.5t-11 16.5q-4 0 -7 -6q-37 -74 -75 -148q-37 -84 -37 -151v-7z" />
<glyph unicode="c" horiz-adv-x="798" d="M39 217q0 160 104 311q94 133 244 228q100 61 197 61q39 0 73 -10q115 -61 138 -135v-7q0 -125 -136 -235q-18 -14 -53 -14q-64 0 -64 19q0 2 1 5q12 31 80 115q61 76 61 96q0 29 -45 29q-23 0 -102 -51q-147 -131 -205 -205q-96 -121 -117 -254q-2 -14 12.5 -41 t32.5 -27h5q86 0 196 64l184 110q23 -59 23 -90q0 -39 -27 -65q-141 -168 -303 -168q-35 0 -70 8q-20 27 -131 68q-88 31 -92 106q-6 41 -6 82z" />
<glyph unicode="d" horiz-adv-x="1228" d="M61 176q0 145 97 293q84 131 223 233q166 123 281 123q55 0 104 -28q18 -10 35 -64q11 -39 41 -39h6q72 125 141 250q82 147 131 256q18 29 -14 33q-57 -16 -133 -82q25 53 77 95t99 42q39 0 67.5 -32.5t55.5 -63.5q8 -8 8 -25q0 -66 -221 -520q-59 -123 -197 -368 q-94 -170 -94 -199q0 -6 2 -8q16 -12 33 -13q23 0 53 27q25 18 47 39q4 2 26.5 23.5t26.5 21.5q2 0 2 -2q0 -6 -16 -31q-82 -129 -209 -190q-16 -6 -53 26q-49 41 -65.5 50.5t-16.5 46.5q0 20 6 59t6 45q0 8 -2 8q-8 1 -15 1q-38 0 -71 -33q-68 -68 -69 -70q-47 -39 -97 -76 q-59 -45 -110 -45q-18 0 -39 6q-2 16 -23 39q-12 14 -55 33.5t-57 46.5q-10 45 -11 92zM219 145q0 -16 8 -30q184 74 322 202q72 61 143 125q82 78 84 156q0 27 -22.5 38t-40.5 5q-233 -82 -445 -375q-49 -92 -49 -121z" />
<glyph unicode="e" horiz-adv-x="880" d="M41 240v15q0 68 33 142q8 16 76 138q166 238 471 303q10 2 20 2q58 0 129 -70q74 -70 74 -90q2 -18 2 -36q0 -180 -215 -314q-63 -39 -157 -39h-9q-27 0 -59.5 30.5t-49.5 65.5q-10 23 -22 23q-33 0 -78 -111q-41 -100 -43 -143q-2 -10 -2 -19q0 -39 35 -53q20 -4 41 -4 q43 0 100 22q47 23 94 43q25 10 79 48t85 51q8 6 20.5 -18.5t12.5 -53.5q0 -14 -4 -25q-25 -53 -99 -100q-61 -37 -120 -74l-60 -20q-23 -10 -45 -10q-31 0 -66.5 21.5t-68.5 41.5q-20 14 -42.5 16.5t-29.5 4.5q-94 37 -102 213zM387 475q-16 -18 12 -47q18 -12 39 -12 q23 0 51 14q117 59 203 188q8 18 8 39q0 41 -34 31q-121 -35 -279 -213z" />
<glyph unicode="f" horiz-adv-x="819" d="M129 815q-4 -12 -8 -22q-4 -14 4 -25q29 -20 90 -20q55 0 64 12q82 156 165 311q102 176 240 254q8 4 18 4q33 0 78 -35q39 -33 43 -51q4 -22 4 -48q0 -41 -10 -91q-16 -90 -53 -129q-2 20 7 63t9 62q0 43 -37 63h-2q-36 0 -211 -377q0 -29 37 -20q47 7 132 7q33 0 73 -1 q-39 -147 -199 -164l-86 -12q-53 -12 -67 -51q-4 -8 -101 -256q-98 -254 -153 -346q-2 -3 -7 -3q-15 0 -59 24q-59 33 -59 61v2q10 117 84 331q65 192 65 195v0q-10 8 -96 31q-55 14 -55 56q0 114 90 175z" />
<glyph unicode="g" horiz-adv-x="1024" d="M47 145q0 10 8 72q33 248 328 500q193 127 287 127q66 0 121 -43q16 -12 28 -66q8 -41 41 -45q10 0 34 51.5t34 51.5q6 -2 8 -7q23 -45 43 -88q25 -53 25 -94q-1 -39 -19 -74q-45 -104 -115 -254q-111 -211 -219 -421q-135 -244 -280 -387q-31 -39 -86 -39q-23 0 -144 32 q-51 39 -51 140q0 49 12 106h2q0 2 2 2q4 -14 11 -96q2 -55 39 -82q63 8 118 90q74 106 160 270q74 135 146 273q6 16 -13 16q-18 0 -35 -20q-115 -109 -141 -129q-92 -68 -168 -68q-18 0 -36.5 5t-33 31t-26.5 36t-24.5 11t-20.5 7q-35 43 -35 92zM199 135q2 -10 12 -8 q100 12 217 98q96 78 195 158q53 55 108 113q62 71 62 139q-25 31 -64 31q-27 0 -135 -48q-250 -188 -379 -432q-8 -14 -13 -28.5t-3 -22.5z" />
<glyph unicode="h" horiz-adv-x="1024" d="M14 94q0 18 11 39q51 166 178 418q113 211 325 641q6 14 4 27q-2 14 -12 12q-33 -6 -80 -47q-57 -47 -80 -58q106 169 224 169q8 0 16 -1q16 0 59 -51q37 -45 43.5 -63.5t6.5 -34.5q0 -37 -52 -139q-61 -133 -125 -267q-76 -160 -141 -256q-20 -37 -20 -49q0 -14 16 -16 q188 231 422 375q33 20 68 20q33 0 55 -20q0 -2 57 -64q29 -32 29 -57v-6q-31 -109 -154 -299.5t-151 -305.5q12 -14 28 -14q12 0 34 9.5t28 11.5t51 31.5t51 29.5h2q0 -8 -32.5 -46t-94.5 -87q-76 -59 -104 -59q-6 0 -10 2q-41 27 -82 51q-57 39 -66 86v7q0 87 47 191 q49 92 97 185q-25 -2 -50.5 -27.5t-48.5 -50.5q-4 -4 -229 -256q-162 -184 -201 -184q-6 0 -10 4q-33 31 -66 63q-43 45 -43 86z" />
<glyph unicode="i" horiz-adv-x="675" d="M53 129q0 72 84 219q4 6 111 180q63 102 96 185q4 6 2 10q-4 2 -12 0q-61 -20 -123 -64q104 145 211 146q20 0 39 -6q12 -6 43 -45.5t31 -59.5q-20 -147 -132 -323q-152 -242 -178 -301q-6 -16 43 -17q25 2 71 33t62 37q-39 -100 -219 -162q-18 -6 -36.5 16.5t-34.5 42.5 q-10 4 -29 21q-29 37 -29 88zM465 1098q0 16 6 30q25 35 76 101q29 45 86 45q78 0 96 -70q1 -7 1 -15q0 -67 -49 -139q-54 -80 -91 -79q-23 2 -64 24q-61 33 -61 103z" />
<glyph unicode="j" horiz-adv-x="675" d="M-68 -358q0 150 76 329q76 154 150 305q31 61 145 259q88 152 88 166t-33 16q-18 0 -47 -19q-37 -23 -49 -26q85 127 209 127h4q39 -6 35 -41q-6 -25 25.5 -44t27.5 -44q-20 -137 -110 -314q-78 -145 -156 -288q-70 -143 -221 -488q-12 -31 -13 -39q0 -20 31 -20 q41 4 76 37q29 31 57 61q-33 -51 -63 -104q-47 -61 -103 -62q-39 0 -79.5 38t-45 76t-4.5 75zM453 1090q-2 45 34 92q35 37 68 75q43 37 66 37h2q55 -3 82 -73q1 -8 1 -16q0 -78 -85 -210q-12 -20 -39 -20q-29 0 -64 24q-43 31 -65 91z" />
<glyph unicode="k" d="M29 88v8q0 62 59 191q80 170 238 454q180 322 245 455q7 24 7 38q0 21 -15 21h-2q-41 -2 -86 -41q-33 -31 -65 -63q12 53 108 141q43 39 90 39q35 -1 82 -61q43 -56 43 -87v-5q-14 -115 -84 -256q-63 -119 -129 -240q-6 -12 2 -18q10 -6 21 2q197 168 321 208q8 1 16 1 q27 0 55 -16q36 -21 34 -40.5t21.5 -25t23.5 -7.5q39 -47 39 -112q0 -54 -27 -99q-174 -307 -391 -307q-27 0 -53 4q-12 2 -13 -10q0 -20 32 -60t67 -81q45 -47 88 -47q18 0 37 6q23 23 59 61q-31 -84 -45 -112q-33 -59 -78 -92q-31 -14 -80 -15q-41 0 -65 15 q-170 106 -201 319q-20 27 -33 14q-63 -88 -184 -268q-6 -8 -14 -8q-6 0 -19.5 15.5t-21.5 19.5q-25 10 -48.5 20t-33.5 39zM489 430q31 -49 64 -49q10 0 22 6q158 99 252 277q4 6 4 16q0 37 -30 27q-150 -72 -312 -256q-10 -10 0 -21z" />
<glyph unicode="l" horiz-adv-x="737" d="M76 129q0 31 14 72q49 147 166 350q98 170 195 338q12 23 114 196q76 125 76 150q0 6 -6 6q-37 0 -82 -24q-37 -20 -74 -43q29 51 78 92q57 49 111 49q23 0 43 -10q65 -43 69 -86q1 -16 1 -32q0 -113 -60 -243q-68 -123 -135 -246q-31 -59 -174 -303q-109 -184 -160 -305 q-12 -29 16 -31h2q14 0 68 26q58 28 74 32q-4 -33 -74 -82q-62 -44 -99 -44q-4 0 -8 1q-20 4 -120 65q-35 20 -35 72z" />
<glyph unicode="m" horiz-adv-x="1638" d="M23 70q25 137 127 325q160 291 167 312q4 8 5 16q0 25 -52 10q-6 -2 -46 -27.5t-48 -25.5q-4 2 -4 4q0 6 18 31q115 100 179 100q27 0 51 -12q82 -64 82 -107v-6q-8 -59 -61.5 -163.5t-53.5 -106.5q2 -20 14 -21q16 0 48 29q96 98 192 197q117 113 229 149q8 2 17 2 q35 0 76 -43q33 -39 35.5 -58.5t2.5 -37.5q0 -78 -75 -178q-86 -115 -101 -174q-2 -8 2 -9q4 -2 9 3q334 334 536 483q43 31 98 31q27 0 50 -9q0 -10 28 -41q66 -41 66 -73q0 -18 -12 -43q-41 -80 -205 -338q-131 -211 -131 -242q0 -14 34 -14q31 0 86 30q80 45 91 50 q-35 -70 -138 -129q-66 -39 -106 -39q-16 0 -23 10q-37 33 -73 65q-57 57 -58 109q0 16 6 35q55 135 115 227q2 8 -6 8q-20 0 -57 -39q-12 -10 -43 -43l-172 -196q-106 -123 -197 -180q-12 -6 -25 -7q-23 0 -48 20.5t-50 39.5q-14 14 -45 16q-12 0 -18 8q-14 31 -15 64 q0 51 39 127q51 100 62.5 124.5t38.5 84.5q2 8 -2 10q-6 2 -15 0q-8 -4 -14 -10q-137 -154 -432 -463q-17 -17 -37 -17q-15 0 -31 9q-8 25 -70 53q-41 19 -41 56q0 7 1 14z" />
<glyph unicode="n" horiz-adv-x="1105" d="M49 88q0 37 19 82q43 106 168 352q102 201 102 212t-29 11q-20 0 -57 -24q-43 -27 -55 -31q41 92 184 133h5q27 0 72 -40q50 -44 52 -62q1 -11 1 -23q0 -57 -32 -123q-35 -68 -69 -133q-4 -10 -2 -16q4 -8 16 -6q14 2 37 22q109 102 217 205q131 115 254 158q6 2 14 2 q49 0 66 -51q6 -18 24.5 -28.5t20.5 -14.5q4 -18 4 -37q0 -57 -37 -123q-6 -12 -63 -102q-63 -92 -125 -187q-70 -106 -103 -192q-2 -37 35 -37q12 0 51 10l109 51q2 0 4 -2q0 -8 -43 -47q-102 -92 -182 -92q-18 0 -37 4q-8 8 -39 35q-74 59 -74 88q0 86 51 188 q45 88 90 174q2 8 -8 11q-10 2 -18 -2q-76 -70 -232 -252q-145 -168 -241 -250q-8 -6 -17 -6q-18 0 -39 28q-18 23 -34 45q-12 12 -26.5 13.5t-19.5 5.5q-14 20 -14 51z" />
<glyph unicode="o" horiz-adv-x="901" d="M41 244q20 190 166 358q139 162 321 225q41 14 82 15q119 0 172 -92q-6 -18 -6 -33q0 -35 47 -77q43 -39 43 -77v-6q-20 -190 -132.5 -342t-291.5 -229q-37 -20 -69 -21q-39 0 -92 31q-63 37 -86 45q-10 -2 -23 -2q-19 0 -43 4q-84 74 -88 201zM236 152q2 -47 51 -48 q12 0 24 7q242 133 359 444q6 16 -17 25q-5 2 -11 2q-27 0 -77 -39q4 31 33 59q25 20 51 43q6 2 6 8q2 6 -6 9q-45 -2 -149 -76q-240 -213 -264 -434z" />
<glyph unicode="p" horiz-adv-x="983" d="M-88 -389q27 184 123 409q88 195 178 388q106 244 106 311q0 6 -2 8q-4 1 -8 1q-38 0 -114 -62q12 47 73 100q58 51 88 51h2q70 -4 121 -74q10 -27 10 -59q0 -43 -34 -154q-2 -10 6 -14q6 -4 14 2q70 84 137 166q90 104 172 104q27 0 54 -8q2 -14 43 -41q25 -8 47 -14 q24 -12 28 -41q4 -37 5 -72q0 -190 -138 -417q-102 -170 -223 -242q-31 -14 -68 -14q-63 0 -114 32q-35 31 -49 47q-27 29 -33 60q-4 8 -14 8q-10 -2 -15 -10q-84 -197 -262 -588h-16q-6 8 -72 51q-43 31 -45 72zM416 166q34 -60 60 -60h5q213 158 262 453q2 10 -8 16 q-8 4 -18 0q-115 -82 -277 -284q-34 -59 -34 -86q0 -22 10 -39z" />
<glyph unicode="q" d="M47 203q0 55 35 139q74 182 226.5 322.5t336.5 191.5q25 7 49 7q54 0 101 -36q20 -16 41 -53q18 -34 18 -63q0 -9 -2 -17t6 -8q4 0 13.5 4t19.5 11.5t47 50.5q27 29 37 22q57 -66 57 -127q0 -21 -8 -39q-74 -188 -256 -485q-217 -354 -279 -479q0 -8 -7 -31t-7 -35 q0 -23 23 -29h8q38 0 80 31q57 39 82 43q-25 -59 -138 -151q-51 -27 -84 -27q-14 0 -28 4q-12 33 -76 57q-55 20 -55 66v6q0 133 84 289q76 133 151 266q-4 12 -18 8q-8 -6 -19 -10q-53 -49 -104 -98q-72 -66 -131 -66q-33 0 -64 17q-18 10 -34 36q-20 41 -27 48 q-16 10 -45 36q-33 41 -33 99zM244 213q-8 -55 12 -51q86 27 188 102q90 72 179 142q10 10 71 63q45 41 68 70q31 41 39 84q-11 49 -69 49h-9q-262 -66 -479 -459z" />
<glyph unicode="r" horiz-adv-x="921" d="M43 92q29 115 129 328t127 319q0 16 -39 17q-20 0 -43.5 -17.5t-42.5 -31.5q-47 -33 -41 -33q-2 2 -2 6q16 37 58 69.5t81 61.5q51 27 97 27q25 0 30.5 -9.5t28.5 -27.5q16 -14 43 -53q10 -27 10 -56q0 -41 -23.5 -108.5t-25.5 -94.5q-2 -10 6 -10t15 6q63 86 127 170 q78 98 153 152q14 10 29 10q20 0 54 -29.5t50 -35.5q23 -14 23 -52q0 -12 -8 -63q-45 -117 -125 -354q-2 -8 -13 -9q-6 0 -29.5 7.5t-33.5 7.5q-8 0 -16.5 -4t-12.5 -4q-14 0 -30.5 23.5t-16.5 41.5q0 16 9.5 58t9.5 51q0 8 -7 4q-51 -41 -104 -123q-84 -129 -88 -133 q-59 -84 -184 -242q-10 -6 -23 -6q-49 0 -55 30.5t-62.5 47t-54.5 59.5z" />
<glyph unicode="s" horiz-adv-x="880" d="M43 100q0 18 2 25q21 49 83 80q54 27 108 27q9 0 18 -1q-8 -18 -57.5 -40.5t-49.5 -34.5q0 -8 11 -17q20 -12 53 -12q55 0 170 51q125 55 125 101q0 25 -43 40q-12 4 -133 17q-86 6 -115 57q1 5 1 10q0 26 -16 64q-20 45 -20 65t10 41q78 121 209 196t277 89 q80 -6 112 -18q63 -20 82 -76q14 -68 15 -72q-1 -25 -13 -45q-45 -94 -186 -141q-10 -6 -35 0q-25 4 -18 16q12 23 65 66q43 37 43 55q0 6 -2 12q-23 8 -49 9q-78 0 -231 -86q-86 -72 -86 -86q0 -8 8 -11q78 -16 158 -35q90 -23 127 -81q2 -18 12 -62.5t10 -66.5 q0 -35 -16 -62q-135 -215 -457 -215q-39 0 -78 4q-94 8 -94 137z" />
<glyph unicode="t" horiz-adv-x="716" d="M35 141q0 72 35 152q45 94 133 280q-16 20 -68.5 24.5t-66.5 39.5q-8 20 -9 41q0 37 31 76q27 33 55 65q-2 -6 -2 -14q0 -20 20.5 -32.5t47.5 -10.5q37 2 113 12q20 27 149 223q88 137 174 203q23 -2 43.5 -37t20.5 -78q0 -31 -13 -55q-41 -80 -127 -233q-10 -16 21 -17 q10 0 67 6q46 6 62 2q1 -3 1 -8q0 -16 -13 -55q-20 -61 -60 -70q-14 -6 -104 -16q-66 -6 -82.5 -39t-157.5 -287q-88 -164 -88 -220v-7q2 -14 16 -14q25 0 146 75q-8 -47 -59.5 -95t-104.5 -66q-12 -2 -22 -2q-35 0 -72 44t-61.5 55t-24.5 58z" />
<glyph unicode="u" d="M49 119q-1 13 -1 26q0 292 300 639q39 45 86 45q25 2 55 -10q25 -12 52 -24q6 -4 20 -2l23 2q10 0 8 -7q-14 -41 -62 -96q-49 -63 -65 -98q-70 -115 -195 -356q2 -18 19 -19q18 0 35 14q92 82 286 287q180 188 287 277q4 2 8 2q27 0 77 -34t50 -48q-18 -127 -119 -297 q-133 -227 -155 -281q-35 -66 -35 -89q0 -8 4 -11q12 -6 27 -6q23 0 51 20q23 18 44 34.5t64 43.5q-108 -179 -224 -179q-7 0 -15 1q-8 0 -24.5 23.5t-43.5 33.5q-64 23 -64 83q0 6 1 13q6 68 32 144q0 25 -28 -6q-70 -78 -139 -156q-80 -78 -172 -98q-27 -6 -45.5 15.5 t-36.5 41.5q-33 12 -64 27q-37 16 -41 45z" />
<glyph unicode="v" horiz-adv-x="942" d="M43 193q0 76 43 180q37 88 74 174q4 14 43 104q28 66 28 83q0 5 -2 7q-6 1 -12 1q-30 0 -61 -25q-31 -31 -62 -60q6 55 79 124t128 69q31 0 78 -39q41 -35 43 -47q1 -14 1 -28q0 -117 -71 -277q-96 -221 -108 -289q4 -12 16 -12q16 0 86 57q285 279 481 635 q8 6 17.5 -11.5t19.5 -21.5q18 -6 39 -28.5t23 -36.5q-55 -356 -475 -705q-92 -76 -191 -76q-27 0 -51.5 6.5t-71.5 59.5q-18 23 -43.5 32t-30.5 17q-20 51 -20 107z" />
<glyph unicode="w" horiz-adv-x="1392" d="M43 127q0 72 92 291q16 39 92 188q50 97 50 114q0 2 -1 3q-12 6 -26 6q-23 0 -59.5 -26.5t-53.5 -30.5q72 133 246 170q4 1 8 1q27 0 64 -36q37 -37 37 -49q1 -13 1 -27q0 -92 -59 -203q-59 -106 -117 -213q-16 -16 -34 -67q-4 -8 2 -12q4 -6 12 0q111 96 262 292 q170 217 254 301q12 6 23 7q23 0 52.5 -40t53 -44t23.5 -35q0 -45 -45 -152q-35 -84 -72 -166q-85 -196 -85 -217q0 -2 1 -2q12 -6 22 -6q27 0 56 31q20 27 41 53q162 197 374 592q2 3 6 3q13 0 53 -34q52 -45 50 -90q-76 -381 -494 -733q-33 -29 -71 -29q-31 0 -95.5 31 t-99.5 31q-41 0 -41 77q0 29 10 111q14 47 13 53q-6 10 -15 11q-12 0 -28 -17q-152 -207 -312 -278q-16 -8 -32 -9q-27 0 -86 56q-12 6 -37 18q-35 20 -35 76z" />
<glyph unicode="x" horiz-adv-x="1044" d="M29 96q0 16 10 31q53 72 164 160q174 137 182 145q-25 238 -25 252q0 61 13 113q20 35 80 49q68 16 88 35l1 1l19 -104q12 -141 21 -180q6 -14 18 -14q6 0 35 20q193 135 373 234q20 4 26 -13q2 -10 0 -37.5t0 -33.5q8 -18 8 -37q0 -35 -32.5 -71t-63.5 -66 q-49 -43 -153 -119q-111 -82 -158 -121q27 -147 67 -252q8 -14 25 -14q14 0 35 10q25 29 80 74q-33 -139 -152 -187q-27 -8 -53 -8q-48 0 -88 29q-43 29 -70 88q-18 53 -39 104q-12 10 -26 0q-92 -72 -185 -141q-115 -86 -135 -86q-6 0 -6 4q-2 25 -30.5 69t-28.5 66z" />
<glyph unicode="y" horiz-adv-x="1003" d="M47 186q0 47 19 115q16 55 32 109q127 279 299 405q38 15 66 15q16 0 29 -5q43 -39 79 -39h7q6 0 6 -6q0 -18 -99 -164q-115 -164 -143 -225q-23 -43 -47 -86q-25 -51 -29 -92q18 -23 56 6q113 86 251 244q115 133 232 266q18 14 37.5 29.5t36.5 15.5q6 0 12 -2 q33 -31 65 -61q37 -39 37 -74q0 -22 -14 -47q-219 -643 -594 -1051q-53 -57 -145 -57q-31 0 -62 6q-98 20 -108 88q0 12 -4 62q-4 39 -5 63q0 82 37 125q0 -41 8 -129q9 -56 46 -56q4 0 8 1q31 6 65 36q25 27 51 54q170 205 304 473q2 6 -5 6q-6 2 -15 -2t-13 -10 q-119 -135 -260 -211q-18 -10 -33 -11q-25 0 -50.5 23t-47.5 43q-14 12 -36 12t-28 6q-45 49 -45 125z" />
<glyph unicode="z" horiz-adv-x="983" d="M45 186q0 35 51 76l82 66q139 100 465 280q8 8 4 17q-6 8 -16 8q-123 -8 -385 -37q-8 10 -8 22t8 34t8 34q0 14 -10 29q-2 45 90 78q298 34 355 34h3q119 0 203 -30q23 -20 27 -58q2 -29 4 -59q2 -10 12 -21.5t10 -17.5q0 -63 -65 -113q-59 -39 -117 -77 q-37 -23 -211 -121q-131 -74 -199 -129q-6 -6 0 -8q4 -4 13 -3q166 10 204 11q154 0 195 -27q10 -6 10 -35q0 -18 -4 -45q-2 -12 4 -39.5t6 -34.5q0 -10 -6 -8q-23 1 -50 1q-82 0 -204 -9q-180 -14 -254 -14q-86 0 -161 10q-23 8 -26 39t-4 57.5t-10.5 40t-16.5 25.5t-7 24z " />
<glyph unicode="{" horiz-adv-x="645" d="M113 -139q0 49 24 147l94 367q18 72 19 117q0 74 -57 100h2v6q63 20 94 70q31 43 55 145l82 328q41 164 86 219q70 82 233 82q43 0 97 -6v-4q-104 -37 -152 -220l-88 -344q-35 -133 -71.5 -191.5t-102.5 -80.5h-2v-6q61 -16 70 -82q6 -45 -27 -168l-98 -371 q-20 -76 -21 -121q0 -70 58 -102l-2 -4q-59 -4 -105 -4q-92 0 -131 18q-57 27 -57 105z" />
<glyph unicode="|" horiz-adv-x="716" d="M285 -231v1579q0 18 12 18h123q14 0 14 -25v-1572q0 -20 -10 -21h-127q-12 0 -12 21z" />
<glyph unicode="}" horiz-adv-x="645" d="M-45 -256q104 37 151 219l89 344q35 133 71.5 191.5t102.5 81.5h2v6q-61 16 -70 82q-6 45 27 168l98 370q20 76 20 121q0 70 -57 103l2 4q59 4 105 4q92 0 131 -19q57 -27 57 -104q0 -50 -25 -148l-94 -366q-18 -72 -18 -117q0 -74 57 -100h-2v-6q-63 -20 -94 -66.5 t-55 -149.5l-82 -327q-41 -164 -86 -219q-70 -82 -234 -82q-43 0 -96 6v4z" />
<glyph unicode="~" horiz-adv-x="716" d="M68 399q-16 0 0 31q20 80 71 131t111 49q25 0 141 -37q41 -14 115 -30q53 -2 69 55q4 12 17 12h33q6 -2 6 -6q2 -8 -8 -26q-20 -68 -64 -115q-51 -57 -115 -55q-55 2 -143 41q-41 12 -100 24q-61 2 -84 -65q-6 -12 -17 -13z" />
<glyph unicode="&#xa1;" horiz-adv-x="921" d="M82 150q0 86 76 229q88 170 233 336q174 199 254 321q4 6 14 6q25 0 65 -27.5t44 -47t4 -39.5q0 -49 -64.5 -180.5t-183.5 -317.5q-102 -162 -170 -317q-6 -12 13 -13q18 0 65 41q41 39 45 33q12 -25 -63 -102q-82 -84 -152 -84q-18 0 -35 6q-6 8 -18 22q-8 8 -64 43 q-49 29 -56 49.5t-7 41.5zM698 1141q-6 70 47 149q49 74 84 74q18 -2 62 -25q59 -31 59 -96q0 -15 -6 -29q-23 -33 -74 -96q-27 -43 -82 -43q-74 0 -90 66z" />
<glyph unicode="&#xa2;" horiz-adv-x="757" d="M-31 403q0 160 105 312q94 133 243 227q100 61 197 62q39 0 74 -11l12 -6q121 135 150 125q8 -4 8 -10t-13.5 -27.5t-15.5 -32.5q-6 -37 -59 -102q41 -39 55 -82q4 -129 -135 -242q-18 -14 -53 -14q-72 0 -64 25q12 31 80 114q61 76 61 97q0 29 -45 28q-23 0 -102 -51 q-147 -131 -205 -205q-96 -121 -117 -254q-2 -14 12.5 -40.5t32.5 -26.5q88 -2 201 63q92 55 184 111q23 -59 23 -90q0 -39 -27 -66q-139 -168 -303 -168q-29 0 -59 6q-29 -70 -55 -147q0 -16 -2 -16q-35 0 -57.5 26.5t-22.5 61.5q0 55 32 131q-68 25 -86 39q-41 29 -43 82 q-6 41 -6 81z" />
<glyph unicode="&#xa3;" horiz-adv-x="921" d="M-8 627q6 92 94 151q-10 -43 -4 -51q35 -25 123 -14q295 516 506 649q8 6 20 6q41 0 109 -49q61 -45 66 -62.5t5 -50.5q0 -152 -63 -219q-2 23 7 63t9 56q0 41 -37 61q-27 10 -147.5 -163.5t-167.5 -282.5q18 2 41 4q51 4 104 8q55 6 101 -2q-33 -119 -199 -139 q-35 -2 -129 -12q-94 -170 -151 -287q-2 -8 -3 -17q0 -41 66 -40q61 0 199.5 12t210.5 12q57 0 104 -6q6 0 6 -16q0 -45 -26 -107q-33 -72 -74 -84q-113 -35 -279 -43q-141 -2 -280 -6q-117 20 -127 108q-2 25 -35 69t-33 73q0 8 2 18q10 82 115 299q-66 -2 -90 4 q-45 12 -43 58z" />
<glyph unicode="&#xa5;" horiz-adv-x="1126" d="M16 369q6 92 95 151q-10 -43 -5 -51q18 -14 56 -16q25 -2 61 0q41 4 37 4q25 0 49 2q-4 43 -16 112q-92 -6 -125 -6q-90 0 -98 2q-55 10 -54 60q6 92 95 151q-10 -43 -5 -51q18 -14 56 -16q25 -2 61 0q41 4 37 4h12q-37 254 -102 450q-6 16 -31 17q-23 0 -39 -17 q-8 -12 -57 -49q31 102 156 189q39 18 88 18q57 0 104 -25q70 -51 94 -151q14 -94 29 -186q2 -68 0 -220q0 -12 4 -14q6 -4 12 4q37 45 246 318q147 190 260 299q20 0 33 -27q18 -33 25 -39q33 -27 32 -82q0 -41 -16 -84q-88 -172 -242 -375q14 0 35 2q51 4 105 9 q55 6 100 -2q-33 -119 -199 -140l-147 -12q-66 -82 -98 -125q225 8 239 12q51 4 105 11q55 4 100 -4q-33 -119 -199 -140q-41 -6 -354 -24q-78 -111 -115 -170q-37 -72 -37 -95t15 -40q10 -2 20 -3q29 0 64 19q27 16 55 33q-6 -49 -65 -88q-53 -29 -106.5 -57.5 t-117.5 -12.5q-127 94 -127 199q0 16 2 32q23 66 84 164q-29 -2 -59 -2q-90 0 -98 2q-55 10 -54 60z" />
<glyph unicode="&#xa6;" horiz-adv-x="1024" d="M51 162v921h922v-921h-922zM133 244h760v760h-760v-760z" />
<glyph unicode="&#xa7;" horiz-adv-x="942" d="M20 145q0 23 11 45q33 76 149 117q-6 -10 -47 -51q-27 -31 -22 -57q0 -25 45 -25q74 0 215 55q78 45 84 52q45 37 37 81q-47 39 -154 46q-121 8 -156 26q-18 10 -37 80q-8 18 -20 28.5t-12 12.5q-16 147 192 289q-6 6 -26 69q-12 16 -37 43q-12 158 207 297 q170 106 288 107q63 0 119 -27q6 -18 29 -53q49 -57 49 -90q0 -22 -16 -47q-80 -121 -181 -121q-16 0 -30 4q-14 18 -54 45q-8 4 59.5 53.5t67.5 61.5q0 4 -6 6q-59 8 -131 -29q-57 -33 -117 -67q-94 -53 -98 -115q4 -10 14 -10q250 0 324 -103q0 -18 10 -59q27 -55 27 -78 q0 -27 -19 -53q-47 -102 -170 -186q12 -6 21 -23q0 -23 8 -61q27 -61 27 -82q0 -23 -15 -50q-70 -133 -208 -204.5t-289 -61.5q-84 20 -109 66q-29 37 -29 69zM295 578q0 -18 24 -19q14 0 52 10q121 37 166 62q100 55 86 133q-6 31 -39 24q-41 -6 -97 -38l-90 -54 q-102 -43 -102 -118z" />
<glyph unicode="&#xa8;" horiz-adv-x="917" d="M426 952q2 41 35 88q43 61 104 52q98 -17 92 -64q-6 -49 -32 -92q-35 -55 -82 -55q-41 0 -76 16q-43 20 -41 55zM815 952q2 41 35 88q43 61 104 52q99 -17 93 -64q-6 -49 -33 -92q-35 -55 -82 -55q-41 0 -76 16q-43 20 -41 55z" />
<glyph unicode="&#xa9;" horiz-adv-x="1560" d="M84 659q-4 281 192.5 484t477.5 205t482.5 -197.5t205.5 -478.5q4 -283 -192.5 -483.5t-475.5 -202.5q-283 -4 -484.5 194.5t-205.5 478.5zM180 659q2 -238 175 -405.5t415 -167.5q238 0 406.5 172t166.5 414q-2 238 -176 406.5t-413 166.5q-236 -2 -406 -175t-168 -411z M416 469q0 125 119 338q74 102 172 184q125 104 219 105q35 0 71 -27q29 -23 34 -36t28.5 -23.5t27.5 -14.5q20 -23 21 -55q0 -31 -27 -94q-18 -43 -55 -80q-49 -51 -98 -45q-23 14 -70 35q-2 2 -2 4q0 4 67.5 75.5t67.5 106.5q0 6 -2 10q-14 12 -37 13q-39 0 -96 -39 q-82 -57 -115 -105q-96 -139 -114 -172q-57 -104 -58 -194q0 -31 8.5 -60.5t57.5 -38.5q78 8 170 64q76 47 151 96q-2 -16 7.5 -44t9.5 -38q0 -20 -15 -37q-123 -164 -284 -164q-25 0 -45.5 3.5t-40 17.5t-37.5 29q-45 -4 -84 26q-51 70 -51 160z" />
<glyph unicode="&#xad;" horiz-adv-x="696" d="M80 467q6 109 88 164q-10 -43 -4 -51q27 -18 78 -19q31 4 59 6q41 6 102 13q51 6 103 12q53 6 98 -2q-27 -119 -194 -154q-145 -31 -197 -30q-82 0 -90 2q-45 10 -43 59z" />
<glyph unicode="&#xae;" horiz-adv-x="1560" d="M84 659q-4 281 192.5 484t477.5 205t482.5 -197.5t205.5 -478.5q4 -283 -192.5 -483.5t-475.5 -202.5q-283 -4 -484.5 194.5t-205.5 478.5zM180 659q2 -238 175 -405.5t415 -167.5q238 0 406.5 172t166.5 414q-2 238 -176 406.5t-413 166.5q-236 -2 -406 -175t-168 -411z M399 356q0 8 2 17q45 125 148 278q90 135 178 269q2 4 -4 4q-41 0 -164 -62q-39 -33 -39 -49q0 -4 2 -10q23 -6 60 -25q-49 -23 -97 6q-37 39 -36 101q0 23 8 33q147 172 403 172q92 0 184 -25q82 -47 82 -92q0 -12 -6 -39t-4 -41q9 -8 17 -33q12 -152 -209 -260 q-43 -12 -131 -41q80 -121 163 -170q35 -20 70 8q8 10 29 27q-8 -45 -38 -94t-55.5 -60.5t-48.5 -11.5q-53 0 -106 47q-14 14 -84 92q-25 37 -68 113q-4 4 -16 0q-55 -94 -168 -250q-16 -6 -22.5 15.5t-12.5 25.5q-37 23 -37 55zM743 666q76 6 158 73q94 80 98 152 q-2 20 -43 35.5t-82 15.5q-23 2 -22 -14q0 -6 3 -20.5t1 -20.5q-33 -70 -113 -205q-4 -8 0 -16z" />
<glyph unicode="&#xaf;" horiz-adv-x="626" d="M115 889q23 147 92 147h553q-55 -147 -82 -147h-563z" />
<glyph unicode="&#xb0;" horiz-adv-x="512" d="M106 1145q0 94 57.5 152.5t147.5 58.5t154.5 -67t64.5 -159q0 -82 -60 -140t-146 -58q-90 0 -154 62.5t-64 150.5zM223 1143q0 -45 28 -74t73 -29q41 0 67.5 28t26.5 69q0 106 -99 106q-96 0 -96 -100z" />
<glyph unicode="&#xb4;" horiz-adv-x="675" d="M395 905q-4 51 40 87t253 151q31 18 60 22q55 9 71 -67q8 -37 8 -51q0 -31 -73 -48q-125 -27 -258 -81q-70 -29 -80 -29q-18 0 -21 16z" />
<glyph unicode="&#xb6;" horiz-adv-x="1024" d="M266 874q0 51 17 113q57 217 241 303q156 76 459 76h180q47 0 39 -31l-16 -55q-4 -23 -35 -35h-74l-327 -1222q-12 -43 -41 -43h-52q-33 0 -20 43l328 1222h-103l-327 -1222q-12 -43 -46 -43h-51q-31 0 -18 45l158 589q-311 27 -312 260z" />
<glyph unicode="&#xb7;" horiz-adv-x="1843" d="M782 569q0 61 54 133q61 80 133 66q51 -10 55 -12q35 -12 35 -47q-51 -227 -160 -215q-117 12 -117 75z" />
<glyph unicode="&#xb8;" horiz-adv-x="626" d="M41 -193q4 20 16 21q8 0 38 -20.5t57 -20.5q35 0 64.5 25.5t29.5 58.5q0 43 -70 43l62 86h86l-37 -49q78 6 78 -68q-1 -19 -5 -37q-16 -61 -66 -93t-110 -32q-31 0 -90 32t-53 54z" />
<glyph unicode="&#xbf;" horiz-adv-x="1024" d="M63 317q0 18 7 39q31 86 110 170q47 49 160 140q78 53 217 165q43 51 86 105q51 59 111 59q68 0 67 -77q0 -51 -26.5 -112t-53.5 -85q-86 -68 -366 -289q-119 -94 -109 -192q78 -41 187 -41q76 0 176 20q100 35 123 45q68 29 110 68q6 27 -28 26q-25 8 -74 8.5t-70 4.5 q25 35 168 45q89 -9 105 -72q-4 -27 6 -68q12 -47 12 -63q0 -31 -25 -53q-195 -172 -524 -172q-80 0 -164 10q-104 31 -151 113q4 14 4 28q0 33 -29 89.5t-29 88.5zM711 1137q-6 70 47 149q49 74 84 74q18 -2 61 -25q59 -31 60 -96q-1 -15 -7 -29q-23 -33 -73 -96 q-27 -43 -82 -43q-74 0 -90 66z" />
<glyph unicode="&#xc0;" horiz-adv-x="1310" d="M31 86q2 78 53 162q45 72 92 143q-8 25 -56 38t-57 48q-4 16 -4 35q0 96 134 197q0 -2 -7 -25q-4 -14 4 -25q49 -35 150 -14q258 348 274 367q166 205 324 329q31 25 74 25q31 0 61 -14q4 -2 22.5 -18.5t28.5 -16.5q12 0 23 14q20 37 67 37q12 0 43 -4t48 -4q14 0 26 2 q14 4 15 -19q0 -29 -43 -161q-193 -588 -259 -1030q0 -49 35 -50q6 0 10.5 2t57.5 46q37 31 43 30l2 -2q0 -8 -35 -55q-113 -147 -213 -139q-47 4 -96 39q-66 47 -76 124q-2 57 12 148q16 121 19 149q-6 12 -21 13q-76 -2 -225 -17q-82 -12 -127 -96q-127 -236 -258 -389 q-8 -6 -12 -6q-10 0 -23.5 29.5t-30.5 35.5q-29 20 -75 72zM670 682q0 -8 6 -16q43 -2 137 -2q8 0 22.5 -5.5t18.5 -5.5q10 0 18 11q52 155 156 466q8 18 -4 19q-6 0 -14 -14q-61 -72 -165 -211.5t-159 -204.5q0 -6 -8 -18.5t-8 -18.5zM807 1592q0 14 8 51q16 76 72 67 q29 -4 59 -22q102 -55 254 -152q43 -35 39 -86q-2 -16 -21 -16q-10 0 -79 29q-133 55 -258 81q-74 16 -74 48z" />
<glyph unicode="&#xc1;" horiz-adv-x="1310" d="M31 86q2 78 53 162q45 72 92 143q-8 25 -56 38t-57 48q-4 16 -4 35q0 96 134 197q0 -2 -7 -25q-4 -14 4 -25q49 -35 150 -14q258 348 274 367q166 205 324 329q31 25 74 25q31 0 61 -14q4 -2 22.5 -18.5t28.5 -16.5q12 0 23 14q20 37 67 37q12 0 43 -4t48 -4q14 0 26 2 q14 4 15 -19q0 -29 -43 -161q-193 -588 -259 -1030q0 -49 35 -50q6 0 10.5 2t57.5 46q37 31 43 30l2 -2q0 -8 -35 -55q-113 -147 -213 -139q-47 4 -96 39q-66 47 -76 124q-2 57 12 148q16 121 19 149q-6 12 -21 13q-76 -2 -225 -17q-82 -12 -127 -96q-127 -236 -258 -389 q-8 -6 -12 -6q-10 0 -23.5 29.5t-30.5 35.5q-29 20 -75 72zM670 682q0 -8 6 -16q43 -2 137 -2q8 0 22.5 -5.5t18.5 -5.5q10 0 18 11q52 155 156 466q8 18 -4 19q-6 0 -14 -14q-61 -72 -165 -211.5t-159 -204.5q0 -6 -8 -18.5t-8 -18.5zM1011 1450q-4 51 40 87t253 151 q31 18 60 22q55 9 71 -67q8 -37 8 -51q0 -31 -73 -48q-125 -27 -258 -81q-70 -29 -80 -29q-18 0 -21 16z" />
<glyph unicode="&#xc2;" horiz-adv-x="1310" d="M31 86q2 78 53 162q45 72 92 143q-8 25 -56 38t-57 48q-4 16 -4 35q0 96 134 197q0 -2 -7 -25q-4 -14 4 -25q49 -35 150 -14q258 348 274 367q166 205 324 329q31 25 74 25q31 0 61 -14q4 -2 22.5 -18.5t28.5 -16.5q12 0 23 14q20 37 67 37q12 0 43 -4t48 -4q14 0 26 2 q14 4 15 -19q0 -29 -43 -161q-193 -588 -259 -1030q0 -49 35 -50q6 0 10.5 2t57.5 46q37 31 43 30l2 -2q0 -8 -35 -55q-113 -147 -213 -139q-47 4 -96 39q-66 47 -76 124q-2 57 12 148q16 121 19 149q-6 12 -21 13q-76 -2 -225 -17q-82 -12 -127 -96q-127 -236 -258 -389 q-8 -6 -12 -6q-10 0 -23.5 29.5t-30.5 35.5q-29 20 -75 72zM670 682q0 -8 6 -16q43 -2 137 -2q8 0 22.5 -5.5t18.5 -5.5q10 0 18 11q52 155 156 466q8 18 -4 19q-6 0 -14 -14q-61 -72 -165 -211.5t-159 -204.5q0 -6 -8 -18.5t-8 -18.5zM876 1466q0 68 115 107q199 88 256 88 q35 0 105 -74q63 -68 63 -80q0 -31 -34 -52.5t-46 -14.5q-14 8 -78 67q-49 45 -82 45q-18 0 -221 -88q-61 -25 -61 -24q-16 0 -17 26z" />
<glyph unicode="&#xc3;" horiz-adv-x="1310" d="M31 86q2 78 53 162q45 72 92 143q-8 25 -56 38t-57 48q-4 16 -4 35q0 96 134 197q0 -2 -7 -25q-4 -14 4 -25q49 -35 150 -14q258 348 274 367q166 205 324 329q31 25 74 25q31 0 61 -14q4 -2 22.5 -18.5t28.5 -16.5q12 0 23 14q20 37 67 37q12 0 43 -4t48 -4q14 0 26 2 q14 4 15 -19q0 -29 -43 -161q-193 -588 -259 -1030q0 -49 35 -50q6 0 10.5 2t57.5 46q37 31 43 30l2 -2q0 -8 -35 -55q-113 -147 -213 -139q-47 4 -96 39q-66 47 -76 124q-2 57 12 148q16 121 19 149q-6 12 -21 13q-76 -2 -225 -17q-82 -12 -127 -96q-127 -236 -258 -389 q-8 -6 -12 -6q-10 0 -23.5 29.5t-30.5 35.5q-29 20 -75 72zM670 682q0 -8 6 -16q43 -2 137 -2q8 0 22.5 -5.5t18.5 -5.5q10 0 18 11q52 155 156 466q8 18 -4 19q-6 0 -14 -14q-61 -72 -165 -211.5t-159 -204.5q0 -6 -8 -18.5t-8 -18.5zM878 1575q0 86 70 86l358 -43l4 4 q-66 45 -65 65q0 25 24 25q31 0 85.5 -53.5t54.5 -100.5q0 -78 -78 -77q-37 0 -173.5 22.5t-174.5 22.5q45 -43 45 -54q0 -18 -19 -18q-14 0 -51 27q-51 37 -53 39q-27 25 -27 55z" />
<glyph unicode="&#xc4;" horiz-adv-x="1310" d="M31 86q2 78 53 162q45 72 92 143q-8 25 -56 38t-57 48q-4 16 -4 35q0 96 134 197q0 -2 -7 -25q-4 -14 4 -25q49 -35 150 -14q258 348 274 367q166 205 324 329q31 25 74 25q31 0 61 -14q4 -2 22.5 -18.5t28.5 -16.5q12 0 23 14q20 37 67 37q12 0 43 -4t48 -4q14 0 26 2 q14 4 15 -19q0 -29 -43 -161q-193 -588 -259 -1030q0 -49 35 -50q6 0 10.5 2t57.5 46q37 31 43 30l2 -2q0 -8 -35 -55q-113 -147 -213 -139q-47 4 -96 39q-66 47 -76 124q-2 57 12 148q16 121 19 149q-6 12 -21 13q-76 -2 -225 -17q-82 -12 -127 -96q-127 -236 -258 -389 q-8 -6 -12 -6q-10 0 -23.5 29.5t-30.5 35.5q-29 20 -75 72zM670 682q0 -8 6 -16q43 -2 137 -2q8 0 22.5 -5.5t18.5 -5.5q10 0 18 11q52 155 156 466q8 18 -4 19q-6 0 -14 -14q-61 -72 -165 -211.5t-159 -204.5q0 -6 -8 -18.5t-8 -18.5zM813 1511q2 41 35 88q43 61 104 52 q98 -17 92 -64q-6 -49 -32 -92q-35 -55 -82 -55q-41 0 -76 16q-43 20 -41 55zM1202 1511q2 41 35 88q43 61 104 52q99 -17 93 -64q-6 -49 -33 -92q-35 -55 -82 -55q-41 0 -76 16q-43 20 -41 55z" />
<glyph unicode="&#xc5;" horiz-adv-x="1310" d="M31 86q2 78 53 162q45 72 92 143q-8 25 -56 38t-57 48q-4 16 -4 35q0 96 134 197q0 -2 -7 -25q-4 -14 4 -25q49 -35 150 -14q258 348 274 367q166 205 324 329q31 25 74 25q31 0 61 -14q4 -2 22.5 -18.5t28.5 -16.5q12 0 23 14q20 37 67 37q12 0 43 -4t48 -4q14 0 26 2 q14 4 15 -19q0 -29 -43 -161q-193 -588 -259 -1030q0 -49 35 -50q6 0 10.5 2t57.5 46q37 31 43 30l2 -2q0 -8 -35 -55q-113 -147 -213 -139q-47 4 -96 39q-66 47 -76 124q-2 57 12 148q16 121 19 149q-6 12 -21 13q-76 -2 -225 -17q-82 -12 -127 -96q-127 -236 -258 -389 q-8 -6 -12 -6q-10 0 -23.5 29.5t-30.5 35.5q-29 20 -75 72zM670 682q0 -8 6 -16q43 -2 137 -2q8 0 22.5 -5.5t18.5 -5.5q10 0 18 11q52 155 156 466q8 18 -4 19q-6 0 -14 -14q-61 -72 -165 -211.5t-159 -204.5q0 -6 -8 -18.5t-8 -18.5zM1056 1524q4 76 64 137q55 55 102 55 q59 0 96 -44t37 -105q0 -68 -51 -121t-125 -53q-53 0 -90 37.5t-33 93.5zM1140 1499q-2 -43 27 -43q74 0 82 135q2 37 -19 37q-33 0 -60.5 -37t-29.5 -92z" />
<glyph unicode="&#xc6;" horiz-adv-x="1884" d="M31 86q2 78 53 162q45 72 92 143q-8 25 -56 38t-57 48q-4 16 -4 35q0 96 134 197q0 -2 -7 -25q-4 -14 4 -25q49 -35 150 -14q258 348 274 367q166 205 324 329q31 25 74 25q31 0 61 -14q4 -2 22.5 -18.5t28.5 -16.5q12 0 23 14q20 37 67 37q12 0 43 -4t48 -4q14 0 26 2 q10 2 15 -8q2 -8 0 -29q-4 -16 -11 -43q76 0 226 10q143 8 217 8q81 0 153 -8q2 -6 2 -10q0 -10 -17.5 -23.5t-19.5 -25.5q-12 -39 -26 -78q-18 -47 -50 -59.5t-110 -34.5q-68 4 -211 -6q-178 -16 -215 -17q-14 0 -12 -20q4 -31 4 -33q-16 -72 -64 -213q-10 -16 -6 -20 q2 -4 21 -2q31 -4 71 -5q33 0 104 3.5t103 3.5q66 0 105 -9l-35 -98q-29 -86 -90 -98q-68 -12 -348 -49q-27 -86 -72 -267q18 0 57 5q231 25 340 24q82 0 146 -10l2 -2q0 -2 -16.5 -18.5t-20.5 -30.5q-10 -41 -21 -80q-16 -49 -51 -62q-315 -66 -479 -59q-41 -18 -78 -14 q-47 4 -96 39q-66 49 -76 124q-2 57 12 148q16 121 19 149q-6 12 -21 13q-76 -2 -225 -17q-82 -12 -127 -96q-127 -236 -258 -389q-8 -6 -12 -6q-10 0 -23.5 29.5t-30.5 35.5q-29 20 -75 72zM670 682q0 -8 6 -16q43 -2 137 -2q8 0 22.5 -5.5t18.5 -5.5q10 0 18 11 q52 155 156 466q8 18 -4 19q-6 0 -14 -14q-61 -72 -165 -211.5t-159 -204.5q0 -6 -8 -18.5t-8 -18.5z" />
<glyph unicode="&#xc7;" horiz-adv-x="1126" d="M12 354q0 207 199 561q293 399 623 478q14 4 30 4q59 0 119 -45q47 -37 59 -66q6 -16 45.5 -32.5t47.5 -24.5q35 -37 34 -92q0 -51 -45 -156q-31 -74 -92 -135q-82 -84 -166 -76q-29 6 -63.5 29.5t-52.5 29.5q-4 2 -5 9q0 14 46 57q35 33 67 63q117 123 117 183 q0 10 -4 16q-27 20 -64 21q-70 0 -159 -64q-135 -96 -191 -176q-160 -231 -192 -287q-96 -174 -97 -325q0 -51 11 -101q20 -49 100 -61q127 12 283 104q127 82 253 162q-2 -27 13.5 -73t15.5 -64q0 -33 -24 -60q-203 -272 -476 -272q-41 0 -79 6q-31 4 -66 31q-57 41 -59 43 q-78 -4 -140 45q-88 117 -88 268zM154 -230q4 20 16 21q8 0 38 -20.5t57 -20.5q35 0 64.5 25.5t29.5 58.5q0 43 -70 43l62 86h86l-37 -49q78 6 78 -68q-1 -19 -5 -37q-16 -61 -66 -93t-110 -32q-31 0 -90 32t-53 54z" />
<glyph unicode="&#xc8;" horiz-adv-x="1228" d="M-2 590q-2 94 106 203q0 -14 -2 -31q0 -23 19 -27q80 -14 123 4q39 51 90 138q78 133 82 141q-31 14 -62 29q-41 18 -45 53q-12 23 -12 51q0 45 45 121q63 76 127 112q0 -6 -7 -26.5t-7 -32.5q0 -18 16 -33q84 -10 184 -10q80 0 238 9t233 9q86 0 158 -8q2 -6 2 -10 q0 -10 -17.5 -23.5t-19.5 -25.5q-12 -39 -26 -78q-18 -47 -49 -58.5t-136 -35.5q-66 4 -182 -10q-137 -18 -186 -21q-14 0 -13 -20q4 -31 5 -33q-37 -68 -105 -205q-10 -16 -6 -20q2 -4 20 -2q31 -4 70 -5q33 0 98.5 3.5t96.5 3.5q63 0 102 -9q-2 0 -35 -98q-29 -86 -90 -98 q-80 -16 -209 -27q-145 -10 -209 -20q-82 -119 -108 -238q-8 -31 69 -33q23 0 95 7q254 25 344 24q80 0 141 -10l2 -2q0 -2 -16.5 -18.5t-20.5 -30.5q-10 -41 -20 -80q-16 -49 -52 -62q-295 -59 -440 -59q-86 0 -170 12q-35 6 -57.5 26.5t-34.5 49.5q-8 18 -16 37 q-23 8 -68 55q-23 27 -18 64q8 70 81 245q-4 4 -63 39q-43 27 -45 64zM563 1592q0 14 8 51q16 76 72 67q29 -4 59 -22q102 -55 254 -152q43 -35 39 -86q-2 -16 -21 -16q-10 0 -79 29q-133 55 -258 81q-74 16 -74 48z" />
<glyph unicode="&#xc9;" horiz-adv-x="1228" d="M-2 590q-2 94 106 203q0 -14 -2 -31q0 -23 19 -27q80 -14 123 4q39 51 90 138q78 133 82 141q-31 14 -62 29q-41 18 -45 53q-12 23 -12 51q0 45 45 121q63 76 127 112q0 -6 -7 -26.5t-7 -32.5q0 -18 16 -33q84 -10 184 -10q80 0 238 9t233 9q86 0 158 -8q2 -6 2 -10 q0 -10 -17.5 -23.5t-19.5 -25.5q-12 -39 -26 -78q-18 -47 -49 -58.5t-136 -35.5q-66 4 -182 -10q-137 -18 -186 -21q-14 0 -13 -20q4 -31 5 -33q-37 -68 -105 -205q-10 -16 -6 -20q2 -4 20 -2q31 -4 70 -5q33 0 98.5 3.5t96.5 3.5q63 0 102 -9q-2 0 -35 -98q-29 -86 -90 -98 q-80 -16 -209 -27q-145 -10 -209 -20q-82 -119 -108 -238q-8 -31 69 -33q23 0 95 7q254 25 344 24q80 0 141 -10l2 -2q0 -2 -16.5 -18.5t-20.5 -30.5q-10 -41 -20 -80q-16 -49 -52 -62q-295 -59 -440 -59q-86 0 -170 12q-35 6 -57.5 26.5t-34.5 49.5q-8 18 -16 37 q-23 8 -68 55q-23 27 -18 64q8 70 81 245q-4 4 -63 39q-43 27 -45 64zM739 1450q-4 51 40 87t253 151q31 18 60 22q55 9 71 -67q8 -37 8 -51q0 -31 -73 -48q-125 -27 -258 -81q-70 -29 -80 -29q-18 0 -21 16z" />
<glyph unicode="&#xca;" horiz-adv-x="1228" d="M-2 590q-2 94 106 203q0 -14 -2 -31q0 -23 19 -27q80 -14 123 4q39 51 90 138q78 133 82 141q-31 14 -62 29q-41 18 -45 53q-12 23 -12 51q0 45 45 121q63 76 127 112q0 -6 -7 -26.5t-7 -32.5q0 -18 16 -33q84 -10 184 -10q80 0 238 9t233 9q86 0 158 -8q2 -6 2 -10 q0 -10 -17.5 -23.5t-19.5 -25.5q-12 -39 -26 -78q-18 -47 -49 -58.5t-136 -35.5q-66 4 -182 -10q-137 -18 -186 -21q-14 0 -13 -20q4 -31 5 -33q-37 -68 -105 -205q-10 -16 -6 -20q2 -4 20 -2q31 -4 70 -5q33 0 98.5 3.5t96.5 3.5q63 0 102 -9q-2 0 -35 -98q-29 -86 -90 -98 q-80 -16 -209 -27q-145 -10 -209 -20q-82 -119 -108 -238q-8 -31 69 -33q23 0 95 7q254 25 344 24q80 0 141 -10l2 -2q0 -2 -16.5 -18.5t-20.5 -30.5q-10 -41 -20 -80q-16 -49 -52 -62q-295 -59 -440 -59q-86 0 -170 12q-35 6 -57.5 26.5t-34.5 49.5q-8 18 -16 37 q-23 8 -68 55q-23 27 -18 64q8 70 81 245q-4 4 -63 39q-43 27 -45 64zM618 1466q0 68 115 107q199 88 256 88q35 0 105 -74q63 -68 63 -80q0 -31 -34 -52.5t-46 -14.5q-14 8 -78 67q-49 45 -82 45q-18 0 -221 -88q-61 -25 -61 -24q-16 0 -17 26z" />
<glyph unicode="&#xcb;" horiz-adv-x="1228" d="M-2 590q-2 94 106 203q0 -14 -2 -31q0 -23 19 -27q80 -14 123 4q39 51 90 138q78 133 82 141q-31 14 -62 29q-41 18 -45 53q-12 23 -12 51q0 45 45 121q63 76 127 112q0 -6 -7 -26.5t-7 -32.5q0 -18 16 -33q84 -10 184 -10q80 0 238 9t233 9q86 0 158 -8q2 -6 2 -10 q0 -10 -17.5 -23.5t-19.5 -25.5q-12 -39 -26 -78q-18 -47 -49 -58.5t-136 -35.5q-66 4 -182 -10q-137 -18 -186 -21q-14 0 -13 -20q4 -31 5 -33q-37 -68 -105 -205q-10 -16 -6 -20q2 -4 20 -2q31 -4 70 -5q33 0 98.5 3.5t96.5 3.5q63 0 102 -9q-2 0 -35 -98q-29 -86 -90 -98 q-80 -16 -209 -27q-145 -10 -209 -20q-82 -119 -108 -238q-8 -31 69 -33q23 0 95 7q254 25 344 24q80 0 141 -10l2 -2q0 -2 -16.5 -18.5t-20.5 -30.5q-10 -41 -20 -80q-16 -49 -52 -62q-295 -59 -440 -59q-86 0 -170 12q-35 6 -57.5 26.5t-34.5 49.5q-8 18 -16 37 q-23 8 -68 55q-23 27 -18 64q8 70 81 245q-4 4 -63 39q-43 27 -45 64zM612 1511q2 41 35 88q43 61 104 52q98 -17 92 -64q-6 -49 -32 -92q-35 -55 -82 -55q-41 0 -76 16q-43 20 -41 55zM1001 1511q2 41 35 88q43 61 104 52q99 -17 93 -64q-6 -49 -33 -92q-35 -55 -82 -55 q-41 0 -76 16q-43 20 -41 55z" />
<glyph unicode="&#xcc;" horiz-adv-x="798" d="M31 129q0 68 32 154q29 74 60 147q252 532 516 866q74 61 98 62q18 0 37 -10q12 -10 44 -9.5t42 -7.5q-74 -197 -229 -500q-133 -258 -264 -514q-18 -47 -39 -94q-23 -57 -21 -102q16 -16 33 -17q23 0 60.5 32t52.5 36q-29 -74 -99.5 -135.5t-152.5 -87.5 q-84 -10 -164 119q-6 31 -6 61zM549 1592q0 14 8 51q16 76 72 67q29 -4 59 -22q102 -55 254 -152q43 -35 39 -86q-2 -16 -21 -16q-10 0 -79 29q-133 55 -258 81q-74 16 -74 48z" />
<glyph unicode="&#xcd;" horiz-adv-x="798" d="M31 129q0 68 32 154q29 74 60 147q252 532 516 866q74 61 98 62q18 0 37 -10q12 -10 44 -9.5t42 -7.5q-74 -197 -229 -500q-133 -258 -264 -514q-18 -47 -39 -94q-23 -57 -21 -102q16 -16 33 -17q23 0 60.5 32t52.5 36q-29 -74 -99.5 -135.5t-152.5 -87.5 q-84 -10 -164 119q-6 31 -6 61zM653 1450q-4 51 40 87t253 151q31 18 60 22q55 9 71 -67q8 -37 8 -51q0 -31 -73 -48q-125 -27 -258 -81q-70 -29 -80 -29q-18 0 -21 16z" />
<glyph unicode="&#xce;" horiz-adv-x="798" d="M31 129q0 68 32 154q29 74 60 147q252 532 516 866q74 61 98 62q18 0 37 -10q12 -10 44 -9.5t42 -7.5q-74 -197 -229 -500q-133 -258 -264 -514q-18 -47 -39 -94q-23 -57 -21 -102q16 -16 33 -17q23 0 60.5 32t52.5 36q-29 -74 -99.5 -135.5t-152.5 -87.5 q-84 -10 -164 119q-6 31 -6 61zM546 1466q0 68 115 107q199 88 256 88q35 0 105 -74q63 -68 63 -80q0 -31 -34 -52.5t-46 -14.5q-14 8 -78 67q-49 45 -82 45q-18 0 -221 -88q-61 -25 -61 -24q-16 0 -17 26z" />
<glyph unicode="&#xcf;" horiz-adv-x="798" d="M31 129q0 68 32 154q29 74 60 147q252 532 516 866q74 61 98 62q18 0 37 -10q12 -10 44 -9.5t42 -7.5q-74 -197 -229 -500q-133 -258 -264 -514q-18 -47 -39 -94q-23 -57 -21 -102q16 -16 33 -17q23 0 60.5 32t52.5 36q-29 -74 -99.5 -135.5t-152.5 -87.5 q-84 -10 -164 119q-6 31 -6 61zM526 1511q2 41 35 88q43 61 104 52q98 -17 92 -64q-6 -49 -32 -92q-35 -55 -82 -55q-41 0 -76 16q-43 20 -41 55zM915 1511q2 41 35 88q43 61 104 52q99 -17 93 -64q-6 -49 -33 -92q-35 -55 -82 -55q-41 0 -76 16q-43 20 -41 55z" />
<glyph unicode="&#xd1;" horiz-adv-x="1413" d="M25 141q0 47 26 125q18 45 37 90q117 229 234 459q141 270 284 432q14 16 60.5 20.5t66.5 26.5q55 41 123 41q25 0 43 -8q6 -29 8 -22q-33 -305 -86 -910q0 -12 10 -14q12 -4 19 4q111 244 219 487q131 289 238 480q6 4 10 4q6 0 16 -20.5t21 -26.5q59 -35 86 -78 q2 -90 -37 -203q-35 -96 -72 -192q-129 -367 -442 -840q-41 -61 -84 -62q-16 0 -25 15q-31 51 -92 88t-74.5 59.5t-21.5 97t-8 166.5q0 61 5 182.5t5 178.5q0 47 -2 86q0 6 -4 8q-8 0 -25 -35q-115 -254 -356 -760q-23 -45 -35 -45q-4 0 -8 2q-12 33 -58 60q-55 33 -68 50 t-13 54zM850 1575q0 86 70 86l358 -43l4 4q-66 45 -65 65q0 25 24 25q31 0 85.5 -53.5t54.5 -100.5q0 -78 -78 -77q-37 0 -173.5 22.5t-174.5 22.5q45 -43 45 -54q0 -18 -19 -18q-14 0 -51 27q-51 37 -53 39q-27 25 -27 55z" />
<glyph unicode="&#xd2;" horiz-adv-x="1146" d="M20 342q0 127 54 289q270 598 760 729q184 4 231 -107q2 -12 2 -24q0 -27 -39 -133q47 -31 83 -86.5t36 -96.5q-6 -260 -133 -493q-123 -225 -334 -385q-106 -82 -225 -82q-39 0 -76 12q-4 2 -25.5 24.5t-63.5 26.5t-81 7q-45 6 -72 28q-117 102 -117 291zM276 324 q0 -70 3 -82q8 -43 45 -62q20 -4 41 -4q96 0 184 76q57 47 139 156q213 281 215 532q-16 16 -43 12q-20 -4 -56 -28.5t-54 -26.5q24 92 198 188q8 4 6 11q0 4 -6 4q-20 6 -43 6q-76 0 -205 -90q-365 -307 -424 -692zM692 1592q0 14 8 51q16 76 72 67q29 -4 59 -22 q102 -55 254 -152q43 -35 39 -86q-2 -16 -21 -16q-10 0 -79 29q-133 55 -258 81q-74 16 -74 48z" />
<glyph unicode="&#xd3;" horiz-adv-x="1146" d="M20 342q0 127 54 289q270 598 760 729q184 4 231 -107q2 -12 2 -24q0 -27 -39 -133q47 -31 83 -86.5t36 -96.5q-6 -260 -133 -493q-123 -225 -334 -385q-106 -82 -225 -82q-39 0 -76 12q-4 2 -25.5 24.5t-63.5 26.5t-81 7q-45 6 -72 28q-117 102 -117 291zM276 324 q0 -70 3 -82q8 -43 45 -62q20 -4 41 -4q96 0 184 76q57 47 139 156q213 281 215 532q-16 16 -43 12q-20 -4 -56 -28.5t-54 -26.5q24 92 198 188q8 4 6 11q0 4 -6 4q-20 6 -43 6q-76 0 -205 -90q-365 -307 -424 -692zM768 1450q-4 51 40 87t253 151q31 18 60 22q55 9 71 -67 q8 -37 8 -51q0 -31 -73 -48q-125 -27 -258 -81q-70 -29 -80 -29q-18 0 -21 16z" />
<glyph unicode="&#xd4;" horiz-adv-x="1146" d="M20 342q0 127 54 289q270 598 760 729q184 4 231 -107q2 -12 2 -24q0 -27 -39 -133q47 -31 83 -86.5t36 -96.5q-6 -260 -133 -493q-123 -225 -334 -385q-106 -82 -225 -82q-39 0 -76 12q-4 2 -25.5 24.5t-63.5 26.5t-81 7q-45 6 -72 28q-117 102 -117 291zM276 324 q0 -70 3 -82q8 -43 45 -62q20 -4 41 -4q96 0 184 76q57 47 139 156q213 281 215 532q-16 16 -43 12q-20 -4 -56 -28.5t-54 -26.5q24 92 198 188q8 4 6 11q0 4 -6 4q-20 6 -43 6q-76 0 -205 -90q-365 -307 -424 -692zM675 1466q0 68 115 107q199 88 256 88q35 0 105 -74 q63 -68 63 -80q0 -31 -34 -52.5t-46 -14.5q-14 8 -78 67q-49 45 -82 45q-18 0 -221 -88q-61 -25 -61 -24q-16 0 -17 26z" />
<glyph unicode="&#xd5;" horiz-adv-x="1146" d="M20 342q0 127 54 289q270 598 760 729q184 4 231 -107q2 -12 2 -24q0 -27 -39 -133q47 -31 83 -86.5t36 -96.5q-6 -260 -133 -493q-123 -225 -334 -385q-106 -82 -225 -82q-39 0 -76 12q-4 2 -25.5 24.5t-63.5 26.5t-81 7q-45 6 -72 28q-117 102 -117 291zM276 324 q0 -70 3 -82q8 -43 45 -62q20 -4 41 -4q96 0 184 76q57 47 139 156q213 281 215 532q-16 16 -43 12q-20 -4 -56 -28.5t-54 -26.5q24 92 198 188q8 4 6 11q0 4 -6 4q-20 6 -43 6q-76 0 -205 -90q-365 -307 -424 -692zM635 1575q0 86 70 86l358 -43l4 4q-66 45 -65 65 q0 25 24 25q31 0 85.5 -53.5t54.5 -100.5q0 -78 -78 -77q-37 0 -173.5 22.5t-174.5 22.5q45 -43 45 -54q0 -18 -19 -18q-14 0 -51 27q-51 37 -53 39q-27 25 -27 55z" />
<glyph unicode="&#xd6;" horiz-adv-x="1146" d="M20 342q0 127 54 289q270 598 760 729q184 4 231 -107q2 -12 2 -24q0 -27 -39 -133q47 -31 83 -86.5t36 -96.5q-6 -260 -133 -493q-123 -225 -334 -385q-106 -82 -225 -82q-39 0 -76 12q-4 2 -25.5 24.5t-63.5 26.5t-81 7q-45 6 -72 28q-117 102 -117 291zM276 324 q0 -70 3 -82q8 -43 45 -62q20 -4 41 -4q96 0 184 76q57 47 139 156q213 281 215 532q-16 16 -43 12q-20 -4 -56 -28.5t-54 -26.5q24 92 198 188q8 4 6 11q0 4 -6 4q-20 6 -43 6q-76 0 -205 -90q-365 -307 -424 -692zM612 1511q2 41 35 88q43 61 104 52q98 -17 92 -64 q-6 -49 -32 -92q-35 -55 -82 -55q-41 0 -76 16q-43 20 -41 55zM1001 1511q2 41 35 88q43 61 104 52q99 -17 93 -64q-6 -49 -33 -92q-35 -55 -82 -55q-41 0 -76 16q-43 20 -41 55z" />
<glyph unicode="&#xd8;" horiz-adv-x="1146" d="M20 344q0 127 54 287q270 598 760 729q178 4 229 -103q92 92 115 82q8 -4 8 -10q0 -8 -16.5 -27.5t-18.5 -29.5q-10 -43 -115 -154q0 -4 -3 -11t-5 -11q47 -31 83 -86.5t36 -96.5q-6 -260 -133 -493q-123 -225 -334 -385q-106 -82 -225 -82q-39 0 -76 12q-4 2 -29 29 q-18 18 -61 22q-2 0 -10 2q-72 -123 -123 -241q-6 -16 -4 -17q-35 2 -55.5 32t-16.5 65q6 61 74 184q-2 0 -17 10q-117 104 -117 293zM276 324q0 -68 3 -82q92 139 323 460q154 212 320 402q-76 8 -222 -88q-365 -307 -424 -692zM373 176q145 6 315 232q213 282 215 532h-2 q-209 -279 -323 -451q-72 -106 -205 -313z" />
<glyph unicode="&#xd9;" horiz-adv-x="1269" d="M29 279q0 106 59 313q104 360 381 696q35 41 92 41q23 0 76 -10t80 -8q10 -8 10 -23q0 -8 -31 -65q-131 -240 -262 -482q-141 -285 -158 -505q-2 -35 21 -35q66 0 205 159q170 195 358 488q156 252 314 504q16 2 47 -35l55 -23q33 -14 47 -37q0 -98 -47 -217 q-10 -27 -86 -186q-104 -221 -209 -442q-123 -256 -221 -430q-12 -16 -27 0q-29 31 -59.5 64.5t-30.5 70.5q0 12 3 23.5t12.5 40t9.5 40.5q0 16 -11 27q-6 2 -26 -12q-164 -233 -312 -293q-12 -6 -24 -6q-33 0 -96 71q-27 29 -55.5 35t-34.5 12q-80 82 -80 224zM649 1592 q0 14 8 51q16 76 72 67q29 -4 59 -22q102 -55 254 -152q43 -35 39 -86q-2 -16 -21 -16q-10 0 -79 29q-133 55 -258 81q-74 16 -74 48z" />
<glyph unicode="&#xda;" horiz-adv-x="1269" d="M29 279q0 106 59 313q104 360 381 696q35 41 92 41q23 0 76 -10t80 -8q10 -8 10 -23q0 -8 -31 -65q-131 -240 -262 -482q-141 -285 -158 -505q-2 -35 21 -35q66 0 205 159q170 195 358 488q156 252 314 504q16 2 47 -35l55 -23q33 -14 47 -37q0 -98 -47 -217 q-10 -27 -86 -186q-104 -221 -209 -442q-123 -256 -221 -430q-12 -16 -27 0q-29 31 -59.5 64.5t-30.5 70.5q0 12 3 23.5t12.5 40t9.5 40.5q0 16 -11 27q-6 2 -26 -12q-164 -233 -312 -293q-12 -6 -24 -6q-33 0 -96 71q-27 29 -55.5 35t-34.5 12q-80 82 -80 224zM839 1450 q-4 51 40 87t253 151q31 18 60 22q55 9 71 -67q8 -37 8 -51q0 -31 -73 -48q-125 -27 -258 -81q-70 -29 -80 -29q-18 0 -21 16z" />
<glyph unicode="&#xdb;" horiz-adv-x="1269" d="M29 279q0 106 59 313q104 360 381 696q35 41 92 41q23 0 76 -10t80 -8q10 -8 10 -23q0 -8 -31 -65q-131 -240 -262 -482q-141 -285 -158 -505q-2 -35 21 -35q66 0 205 159q170 195 358 488q156 252 314 504q16 2 47 -35l55 -23q33 -14 47 -37q0 -98 -47 -217 q-10 -27 -86 -186q-104 -221 -209 -442q-123 -256 -221 -430q-12 -16 -27 0q-29 31 -59.5 64.5t-30.5 70.5q0 12 3 23.5t12.5 40t9.5 40.5q0 16 -11 27q-6 2 -26 -12q-164 -233 -312 -293q-12 -6 -24 -6q-33 0 -96 71q-27 29 -55.5 35t-34.5 12q-80 82 -80 224zM690 1466 q0 68 115 107q199 88 256 88q35 0 105 -74q63 -68 63 -80q0 -31 -34 -52.5t-46 -14.5q-14 8 -78 67q-49 45 -82 45q-18 0 -221 -88q-61 -25 -61 -24q-16 0 -17 26z" />
<glyph unicode="&#xdc;" horiz-adv-x="1269" d="M29 279q0 106 59 313q104 360 381 696q35 41 92 41q23 0 76 -10t80 -8q10 -8 10 -23q0 -8 -31 -65q-131 -240 -262 -482q-141 -285 -158 -505q-2 -35 21 -35q66 0 205 159q170 195 358 488q156 252 314 504q16 2 47 -35l55 -23q33 -14 47 -37q0 -98 -47 -217 q-10 -27 -86 -186q-104 -221 -209 -442q-123 -256 -221 -430q-12 -16 -27 0q-29 31 -59.5 64.5t-30.5 70.5q0 12 3 23.5t12.5 40t9.5 40.5q0 16 -11 27q-6 2 -26 -12q-164 -233 -312 -293q-12 -6 -24 -6q-33 0 -96 71q-27 29 -55.5 35t-34.5 12q-80 82 -80 224zM698 1511 q2 41 35 88q43 61 104 52q98 -17 92 -64q-6 -49 -32 -92q-35 -55 -82 -55q-41 0 -76 16q-43 20 -41 55zM1087 1511q2 41 35 88q43 61 104 52q99 -17 93 -64q-6 -49 -33 -92q-35 -55 -82 -55q-41 0 -76 16q-43 20 -41 55z" />
<glyph unicode="&#xdd;" horiz-adv-x="962" d="M43 1116q31 102 156 189q39 18 88 18q57 0 104 -25q70 -51 94 -151q14 -94 29 -186q2 -68 0 -220q0 -12 4 -14q6 -4 12 4q37 45 246 318q147 190 260 299q20 0 33 -27q18 -33 25 -39q33 -27 32 -82q0 -41 -16 -84q-104 -201 -326 -489q-264 -342 -344 -469 q-37 -72 -37 -95t15 -40q10 -2 20 -3q29 0 64 19q27 16 55 33q-6 -49 -65 -88q-53 -29 -106.5 -57.5t-117.5 -12.5q-127 94 -127 199q0 16 2 32q33 88 168 295q-35 262 -53 369q-37 205 -88 356q-6 16 -31 17q-23 0 -39 -17q-8 -12 -57 -49zM538 1435q-4 51 40 87t253 151 q31 18 60 22q55 9 71 -67q8 -37 8 -51q0 -31 -73 -48q-125 -27 -258 -81q-70 -29 -80 -29q-18 0 -21 16z" />
<glyph unicode="&#xdf;" horiz-adv-x="942" d="M41 27q10 117 84 331q66 195 65 195q-31 16 -60.5 30.5t-29.5 53.5q0 119 90 180q-10 -41 3 -55q25 -18 49 -19q25 0 37 17q84 160 167 321q109 184 244 262q4 2 12 3q33 0 103 -70q53 -53 86 -100q14 -20 14 -78q0 -109 -39 -260.5t-82 -186.5q-98 -80 -98 -94 q0 -6 8 -8q123 -41 211 -184q27 -80 27 -117q0 -41 -21 -74q-135 -215 -391 -215q-37 0 -76 4q-94 8 -94 137q0 18 2 25q20 49 83 80t126 26q-8 -18 -57 -40.5t-49 -34.5q0 -8 10 -17q20 -12 47 -12q109 0 231 141q4 6 5 17q0 45 -39 65q-49 18 -100.5 39t-80.5 72 q4 29 -15 74t-19 65t10 41q49 76 182 201q102 96 102 139q0 16 4.5 49t4.5 49q0 63 -47 90q-31 12 -152 -233q-96 -190 -178 -391q-8 -18 -103 -269q-90 -242 -145 -333q-6 -12 -69.5 21.5t-61.5 62.5z" />
<glyph unicode="&#xe0;" d="M39 131q2 76 10 100q102 352 463 562q68 39 150 38q127 0 167 -100l7 -35q4 -20 24 -18q23 2 45.5 27.5t36.5 31.5q94 5 129 -26q4 -6 -4 -23q-16 -27 -18 -35q-20 -55 -177 -325q-145 -250 -145 -283q0 -35 53 -22q29 14 71 54t58 52q-109 -174 -202 -215q-8 -4 -17 -4 q-12 0 -59 51q-12 18 -22.5 21.5t-22.5 5.5q-20 14 -21 59q0 25 8 74q6 39 2 45q-4 4 -8 4q-20 0 -78 -61q-76 -82 -90 -95q-90 -74 -159 -73q-27 0 -54 8q-8 2 -16 20.5t-29 30.5q-104 63 -102 131zM223 133q0 -16 4 -31q8 -16 39 4q160 102 309 234q225 195 211 283 q-6 39 -59 32q-186 -53 -405 -329q-98 -123 -99 -193zM506 1047q0 14 8 51q16 76 72 67q29 -4 59 -22q102 -55 254 -152q43 -35 39 -86q-2 -16 -21 -16q-10 0 -79 29q-133 55 -258 81q-74 16 -74 48z" />
<glyph unicode="&#xe1;" d="M39 131q2 76 10 100q102 352 463 562q68 39 150 38q127 0 167 -100l7 -35q4 -20 24 -18q23 2 45.5 27.5t36.5 31.5q94 5 129 -26q4 -6 -4 -23q-16 -27 -18 -35q-20 -55 -177 -325q-145 -250 -145 -283q0 -35 53 -22q29 14 71 54t58 52q-109 -174 -202 -215q-8 -4 -17 -4 q-12 0 -59 51q-12 18 -22.5 21.5t-22.5 5.5q-20 14 -21 59q0 25 8 74q6 39 2 45q-4 4 -8 4q-20 0 -78 -61q-76 -82 -90 -95q-90 -74 -159 -73q-27 0 -54 8q-8 2 -16 20.5t-29 30.5q-104 63 -102 131zM223 133q0 -16 4 -31q8 -16 39 4q160 102 309 234q225 195 211 283 q-6 39 -59 32q-186 -53 -405 -329q-98 -123 -99 -193zM610 905q-4 51 40 87t253 151q31 18 60 22q55 9 71 -67q8 -37 8 -51q0 -31 -73 -48q-125 -27 -258 -81q-70 -29 -80 -29q-18 0 -21 16z" />
<glyph unicode="&#xe2;" d="M39 131q2 76 10 100q102 352 463 562q68 39 150 38q127 0 167 -100l7 -35q4 -20 24 -18q23 2 45.5 27.5t36.5 31.5q94 5 129 -26q4 -6 -4 -23q-16 -27 -18 -35q-20 -55 -177 -325q-145 -250 -145 -283q0 -35 53 -22q29 14 71 54t58 52q-109 -174 -202 -215q-8 -4 -17 -4 q-12 0 -59 51q-12 18 -22.5 21.5t-22.5 5.5q-20 14 -21 59q0 25 8 74q6 39 2 45q-4 4 -8 4q-20 0 -78 -61q-76 -82 -90 -95q-90 -74 -159 -73q-27 0 -54 8q-8 2 -16 20.5t-29 30.5q-104 63 -102 131zM223 133q0 -16 4 -31q8 -16 39 4q160 102 309 234q225 195 211 283 q-6 39 -59 32q-186 -53 -405 -329q-98 -123 -99 -193zM503 921q0 68 115 107q199 88 256 88q35 0 105 -74q63 -68 63 -80q0 -31 -34 -52.5t-46 -14.5q-14 8 -78 67q-49 45 -82 45q-18 0 -221 -88q-61 -25 -61 -24q-16 0 -17 26z" />
<glyph unicode="&#xe3;" d="M39 131q2 76 10 100q102 352 463 562q68 39 150 38q127 0 167 -100l7 -35q4 -20 24 -18q23 2 45.5 27.5t36.5 31.5q94 5 129 -26q4 -6 -4 -23q-16 -27 -18 -35q-20 -55 -177 -325q-145 -250 -145 -283q0 -35 53 -22q29 14 71 54t58 52q-109 -174 -202 -215q-8 -4 -17 -4 q-12 0 -59 51q-12 18 -22.5 21.5t-22.5 5.5q-20 14 -21 59q0 25 8 74q6 39 2 45q-4 4 -8 4q-20 0 -78 -61q-76 -82 -90 -95q-90 -74 -159 -73q-27 0 -54 8q-8 2 -16 20.5t-29 30.5q-104 63 -102 131zM223 133q0 -16 4 -31q8 -16 39 4q160 102 309 234q225 195 211 283 q-6 39 -59 32q-186 -53 -405 -329q-98 -123 -99 -193zM534 1002q0 86 70 86l358 -43l4 4q-66 45 -65 65q0 25 24 25q31 0 85.5 -53.5t54.5 -100.5q0 -78 -78 -77q-37 0 -173.5 22.5t-174.5 22.5q45 -43 45 -54q0 -18 -19 -18q-14 0 -51 27q-51 37 -53 39q-27 25 -27 55z" />
<glyph unicode="&#xe4;" d="M39 131q2 76 10 100q102 352 463 562q68 39 150 38q127 0 167 -100l7 -35q4 -20 24 -18q23 2 45.5 27.5t36.5 31.5q94 5 129 -26q4 -6 -4 -23q-16 -27 -18 -35q-20 -55 -177 -325q-145 -250 -145 -283q0 -35 53 -22q29 14 71 54t58 52q-109 -174 -202 -215q-8 -4 -17 -4 q-12 0 -59 51q-12 18 -22.5 21.5t-22.5 5.5q-20 14 -21 59q0 25 8 74q6 39 2 45q-4 4 -8 4q-20 0 -78 -61q-76 -82 -90 -95q-90 -74 -159 -73q-27 0 -54 8q-8 2 -16 20.5t-29 30.5q-104 63 -102 131zM223 133q0 -16 4 -31q8 -16 39 4q160 102 309 234q225 195 211 283 q-6 39 -59 32q-186 -53 -405 -329q-98 -123 -99 -193zM426 952q2 41 35 88q43 61 104 52q98 -17 92 -64q-6 -49 -32 -92q-35 -55 -82 -55q-41 0 -76 16q-43 20 -41 55zM815 952q2 41 35 88q43 61 104 52q99 -17 93 -64q-6 -49 -33 -92q-35 -55 -82 -55q-41 0 -76 16 q-43 20 -41 55z" />
<glyph unicode="&#xe5;" d="M39 131q2 76 10 100q102 352 463 562q68 39 150 38q127 0 167 -100l7 -35q4 -20 24 -18q23 2 45.5 27.5t36.5 31.5q94 5 129 -26q4 -6 -4 -23q-16 -27 -18 -35q-20 -55 -177 -325q-145 -250 -145 -283q0 -35 53 -22q29 14 71 54t58 52q-109 -174 -202 -215q-8 -4 -17 -4 q-12 0 -59 51q-12 18 -22.5 21.5t-22.5 5.5q-20 14 -21 59q0 25 8 74q6 39 2 45q-4 4 -8 4q-20 0 -78 -61q-76 -82 -90 -95q-90 -74 -159 -73q-27 0 -54 8q-8 2 -16 20.5t-29 30.5q-104 63 -102 131zM223 133q0 -16 4 -31q8 -16 39 4q160 102 309 234q225 195 211 283 q-6 39 -59 32q-186 -53 -405 -329q-98 -123 -99 -193zM731 983q4 76 64 137q55 55 102 55q59 0 96 -44t37 -105q0 -68 -51 -121t-125 -53q-53 0 -90 37.5t-33 93.5zM815 958q-2 -43 27 -43q74 0 82 135q2 37 -19 37q-33 0 -60.5 -37t-29.5 -92z" />
<glyph unicode="&#xe6;" horiz-adv-x="1495" d="M39 131q2 76 10 100q102 352 463 562q68 39 150 38q127 0 167 -100l7 -35q4 -20 24 -18q23 2 45.5 27.5t36.5 31.5q27 2 72 -2q121 68 233 90q66 12 150 -67q73 -70 73 -90q23 -203 -213 -351q-66 -41 -165 -38q-27 0 -60 30.5t-49 65.5q-10 23 -22 22q-33 0 -78 -110 q-41 -100 -43 -144q-2 -10 -2 -18q0 -39 34 -53q20 -4 41 -4q43 0 101 22q47 23 94 43q25 10 79 48t85 50q8 6 20.5 -18.5t12.5 -52.5q0 -14 -5 -25q-25 -53 -98 -100q-61 -37 -121 -74q-18 -6 -58 -21.5t-73 -5.5q-98 -39 -243 -20q-37 4 -76 47q-12 18 -22.5 21.5 t-22.5 5.5q-20 14 -21 59q0 25 8 74q6 39 2 45q-4 4 -8 4q-20 0 -78 -61q-76 -82 -90 -95q-90 -74 -159 -73q-27 0 -54 8q-8 2 -16 20.5t-29 30.5q-104 63 -102 131zM223 133q0 -16 4 -31q8 -16 39 4q160 102 309 234q225 195 211 283q-6 39 -59 32q-186 -53 -405 -329 q-98 -123 -99 -193zM1014 475q-16 -18 12 -47q37 -25 90 2q117 59 203 188q8 18 8 39q0 41 -35 31q-121 -35 -278 -213z" />
<glyph unicode="&#xe7;" horiz-adv-x="798" d="M39 217q0 160 104 311q94 133 244 228q100 61 197 61q39 0 73 -10q115 -61 138 -135q4 -129 -136 -242q-18 -14 -53 -14q-72 0 -63 24q12 31 80 115q61 76 61 96q0 29 -45 29q-23 0 -102 -51q-147 -131 -205 -205q-96 -121 -117 -254q-2 -14 12.5 -41t32.5 -27 q88 -2 201 64l184 110q23 -59 23 -90q0 -39 -27 -65q-141 -168 -303 -168q-35 0 -70 8q-20 27 -131 68q-88 31 -92 106q-6 41 -6 82zM74 -242q4 20 16 21q8 0 38 -20.5t57 -20.5q35 0 64.5 25.5t29.5 58.5q0 43 -70 43l62 86h86l-37 -49q78 6 78 -68q-1 -19 -5 -37 q-16 -61 -66 -93t-110 -32q-31 0 -90 32t-53 54z" />
<glyph unicode="&#xe8;" horiz-adv-x="880" d="M41 240q-4 74 33 157q8 16 76 138q166 238 471 303q66 14 149 -68q74 -70 74 -90q23 -203 -213 -350q-66 -41 -166 -39q-27 0 -59.5 30.5t-49.5 65.5q-10 23 -22 23q-33 0 -78 -111q-41 -100 -43 -143q-2 -10 -2 -19q0 -39 35 -53q20 -4 41 -4q43 0 100 22q47 23 94 43 q25 10 79 48t85 51q8 6 20.5 -18.5t12.5 -53.5q0 -14 -4 -25q-25 -53 -99 -100q-61 -37 -120 -74l-60 -20q-23 -10 -45 -10q-31 0 -66.5 21.5t-68.5 41.5q-20 14 -42.5 16.5t-29.5 4.5q-94 37 -102 213zM377 1047q0 14 8 51q16 76 72 67q29 -4 59 -22q102 -55 254 -152 q43 -35 39 -86q-2 -16 -21 -16q-10 0 -79 29q-133 55 -258 81q-74 16 -74 48zM387 475q-16 -18 12 -47q37 -25 90 2q117 59 203 188q8 18 8 39q0 41 -34 31q-121 -35 -279 -213z" />
<glyph unicode="&#xe9;" horiz-adv-x="880" d="M41 240q-4 74 33 157q8 16 76 138q166 238 471 303q66 14 149 -68q74 -70 74 -90q23 -203 -213 -350q-66 -41 -166 -39q-27 0 -59.5 30.5t-49.5 65.5q-10 23 -22 23q-33 0 -78 -111q-41 -100 -43 -143q-2 -10 -2 -19q0 -39 35 -53q20 -4 41 -4q43 0 100 22q47 23 94 43 q25 10 79 48t85 51q8 6 20.5 -18.5t12.5 -53.5q0 -14 -4 -25q-25 -53 -99 -100q-61 -37 -120 -74l-60 -20q-23 -10 -45 -10q-31 0 -66.5 21.5t-68.5 41.5q-20 14 -42.5 16.5t-29.5 4.5q-94 37 -102 213zM387 475q-16 -18 12 -47q37 -25 90 2q117 59 203 188q8 18 8 39 q0 41 -34 31q-121 -35 -279 -213zM438 905q-4 51 40 87t253 151q31 18 60 22q55 9 71 -67q8 -37 8 -51q0 -31 -73 -48q-125 -27 -258 -81q-70 -29 -80 -29q-18 0 -21 16z" />
<glyph unicode="&#xea;" horiz-adv-x="880" d="M41 240q-4 74 33 157q8 16 76 138q166 238 471 303q66 14 149 -68q74 -70 74 -90q23 -203 -213 -350q-66 -41 -166 -39q-27 0 -59.5 30.5t-49.5 65.5q-10 23 -22 23q-33 0 -78 -111q-41 -100 -43 -143q-2 -10 -2 -19q0 -39 35 -53q20 -4 41 -4q43 0 100 22q47 23 94 43 q25 10 79 48t85 51q8 6 20.5 -18.5t12.5 -53.5q0 -14 -4 -25q-25 -53 -99 -100q-61 -37 -120 -74l-60 -20q-23 -10 -45 -10q-31 0 -66.5 21.5t-68.5 41.5q-20 14 -42.5 16.5t-29.5 4.5q-94 37 -102 213zM387 475q-16 -18 12 -47q37 -25 90 2q117 59 203 188q8 18 8 39 q0 41 -34 31q-121 -35 -279 -213zM389 907q0 68 115 107q199 88 256 88q35 0 105 -74q63 -68 63 -80q0 -31 -34 -52.5t-46 -14.5q-14 8 -78 67q-49 45 -82 45q-18 0 -221 -88q-61 -25 -61 -24q-16 0 -17 26z" />
<glyph unicode="&#xeb;" horiz-adv-x="880" d="M41 240q-4 74 33 157q8 16 76 138q166 238 471 303q66 14 149 -68q74 -70 74 -90q23 -203 -213 -350q-66 -41 -166 -39q-27 0 -59.5 30.5t-49.5 65.5q-10 23 -22 23q-33 0 -78 -111q-41 -100 -43 -143q-2 -10 -2 -19q0 -39 35 -53q20 -4 41 -4q43 0 100 22q47 23 94 43 q25 10 79 48t85 51q8 6 20.5 -18.5t12.5 -53.5q0 -14 -4 -25q-25 -53 -99 -100q-61 -37 -120 -74l-60 -20q-23 -10 -45 -10q-31 0 -66.5 21.5t-68.5 41.5q-20 14 -42.5 16.5t-29.5 4.5q-94 37 -102 213zM387 475q-16 -18 12 -47q37 -25 90 2q117 59 203 188q8 18 8 39 q0 41 -34 31q-121 -35 -279 -213zM397 952q2 41 35 88q43 61 104 52q98 -17 92 -64q-6 -49 -32 -92q-35 -55 -82 -55q-41 0 -76 16q-43 20 -41 55zM786 952q2 41 35 88q43 61 104 52q99 -17 93 -64q-6 -49 -33 -92q-35 -55 -82 -55q-41 0 -76 16q-43 20 -41 55z" />
<glyph unicode="&#xec;" horiz-adv-x="675" d="M53 129q0 72 84 219q4 6 111 180q63 102 96 185q4 6 2 10q-4 2 -12 0q-61 -20 -123 -64q104 145 211 146q20 0 39 -6q12 -6 43 -45.5t31 -59.5q-20 -147 -132 -323q-152 -242 -178 -301q-6 -16 43 -17q25 2 71 33t62 37q-39 -100 -219 -162q-18 -6 -36.5 16.5t-34.5 42.5 q-10 4 -29 21q-29 37 -29 88zM248 1047q0 14 8 51q16 76 72 67q29 -4 59 -22q102 -55 254 -152q43 -35 39 -86q-2 -16 -21 -16q-10 0 -79 29q-133 55 -258 81q-74 16 -74 48z" />
<glyph unicode="&#xed;" horiz-adv-x="675" d="M53 129q0 72 84 219q4 6 111 180q63 102 96 185q4 6 2 10q-4 2 -12 0q-61 -20 -123 -64q104 145 211 146q20 0 39 -6q12 -6 43 -45.5t31 -59.5q-20 -147 -132 -323q-152 -242 -178 -301q-6 -16 43 -17q25 2 71 33t62 37q-39 -100 -219 -162q-18 -6 -36.5 16.5t-34.5 42.5 q-10 4 -29 21q-29 37 -29 88zM323 905q-4 51 40 87t253 151q31 18 60 22q55 9 71 -67q8 -37 8 -51q0 -31 -73 -48q-125 -27 -258 -81q-70 -29 -80 -29q-18 0 -21 16z" />
<glyph unicode="&#xee;" horiz-adv-x="675" d="M53 129q0 72 84 219q4 6 111 180q63 102 96 185q4 6 2 10q-4 2 -12 0q-61 -20 -123 -64q104 145 211 146q20 0 39 -6q12 -6 43 -45.5t31 -59.5q-20 -147 -132 -323q-152 -242 -178 -301q-6 -16 43 -17q25 2 71 33t62 37q-39 -100 -219 -162q-18 -6 -36.5 16.5t-34.5 42.5 q-10 4 -29 21q-29 37 -29 88zM206 907q0 68 115 107q199 88 256 88q35 0 105 -74q63 -68 63 -80q0 -31 -34 -52.5t-46 -14.5q-14 8 -78 67q-49 45 -82 45q-18 0 -221 -88q-61 -25 -61 -24q-16 0 -17 26z" />
<glyph unicode="&#xef;" horiz-adv-x="675" d="M53 129q0 72 84 219q4 6 111 180q63 102 96 185q4 6 2 10q-4 2 -12 0q-61 -20 -123 -64q104 145 211 146q20 0 39 -6q12 -6 43 -45.5t31 -59.5q-20 -147 -132 -323q-152 -242 -178 -301q-6 -16 43 -17q25 2 71 33t62 37q-39 -100 -219 -162q-18 -6 -36.5 16.5t-34.5 42.5 q-10 4 -29 21q-29 37 -29 88zM182 952q2 41 35 88q43 61 104 52q98 -17 92 -64q-6 -49 -32 -92q-35 -55 -82 -55q-41 0 -76 16q-43 20 -41 55zM571 952q2 41 35 88q43 61 104 52q99 -17 93 -64q-6 -49 -33 -92q-35 -55 -82 -55q-41 0 -76 16q-43 20 -41 55z" />
<glyph unicode="&#xf1;" horiz-adv-x="1105" d="M49 88q0 37 19 82q43 106 168 352q106 209 102 213q-12 10 -29 10q-20 0 -57 -24q-43 -27 -55 -31q41 92 184 133q27 4 77 -40t52 -62q8 -66 -31 -146q-35 -68 -69 -133q-4 -10 -2 -16q4 -8 16 -6q14 2 37 22q109 102 217 205q131 115 254 158q6 2 14 2q49 0 66 -51 q6 -18 24.5 -28.5t20.5 -14.5q4 -18 4 -37q0 -57 -37 -123q-6 -12 -63 -102q-63 -92 -125 -187q-70 -106 -103 -192q-2 -37 35 -37q12 0 51 10l109 51q2 0 4 -2q0 -8 -43 -47q-102 -92 -182 -92q-18 0 -37 4q-8 8 -39 35q-74 59 -74 88q0 86 51 188q45 88 90 174q2 8 -8 11 q-10 2 -18 -2q-76 -70 -232 -252q-145 -168 -241 -250q-8 -6 -17 -6q-18 0 -39 28q-18 23 -34 45q-12 12 -26.5 13.5t-19.5 5.5q-14 20 -14 51zM477 973q0 86 70 86l358 -43l4 4q-66 45 -65 65q0 25 24 25q31 0 85.5 -53.5t54.5 -100.5q0 -78 -78 -77q-37 0 -173.5 22.5 t-174.5 22.5q45 -43 45 -54q0 -18 -19 -18q-14 0 -51 27q-51 37 -53 39q-27 25 -27 55z" />
<glyph unicode="&#xf2;" horiz-adv-x="901" d="M41 244q20 190 166 358q139 162 321 225q41 14 82 15q119 0 172 -92q-6 -18 -6 -33q0 -35 47 -77t43 -83q-20 -190 -132.5 -342t-291.5 -229q-37 -20 -69 -21q-39 0 -92 31q-63 37 -86 45q-25 -4 -66 2q-84 74 -88 201zM236 152q2 -47 51 -48q12 0 24 7q242 133 359 444 q6 16 -17 25q-27 10 -88 -37q4 31 33 59q25 20 51 43q6 2 6 8q2 6 -6 9q-45 -2 -149 -76q-240 -213 -264 -434zM420 1047q0 14 8 51q16 76 72 67q29 -4 59 -22q102 -55 254 -152q43 -35 39 -86q-2 -16 -21 -16q-10 0 -79 29q-133 55 -258 81q-74 16 -74 48z" />
<glyph unicode="&#xf3;" horiz-adv-x="901" d="M41 244q20 190 166 358q139 162 321 225q41 14 82 15q119 0 172 -92q-6 -18 -6 -33q0 -35 47 -77t43 -83q-20 -190 -132.5 -342t-291.5 -229q-37 -20 -69 -21q-39 0 -92 31q-63 37 -86 45q-25 -4 -66 2q-84 74 -88 201zM236 152q2 -47 51 -48q12 0 24 7q242 133 359 444 q6 16 -17 25q-27 10 -88 -37q4 31 33 59q25 20 51 43q6 2 6 8q2 6 -6 9q-45 -2 -149 -76q-240 -213 -264 -434zM467 905q-4 51 40 87t253 151q31 18 60 22q55 9 71 -67q8 -37 8 -51q0 -31 -73 -48q-125 -27 -258 -81q-70 -29 -80 -29q-18 0 -21 16z" />
<glyph unicode="&#xf4;" horiz-adv-x="901" d="M41 244q20 190 166 358q139 162 321 225q41 14 82 15q119 0 172 -92q-6 -18 -6 -33q0 -35 47 -77t43 -83q-20 -190 -132.5 -342t-291.5 -229q-37 -20 -69 -21q-39 0 -92 31q-63 37 -86 45q-25 -4 -66 2q-84 74 -88 201zM236 152q2 -47 51 -48q12 0 24 7q242 133 359 444 q6 16 -17 25q-27 10 -88 -37q4 31 33 59q25 20 51 43q6 2 6 8q2 6 -6 9q-45 -2 -149 -76q-240 -213 -264 -434zM374 907q0 68 115 107q199 88 256 88q35 0 105 -74q63 -68 63 -80q0 -31 -34 -52.5t-46 -14.5q-14 8 -78 67q-49 45 -82 45q-18 0 -221 -88q-61 -25 -61 -24 q-16 0 -17 26z" />
<glyph unicode="&#xf5;" horiz-adv-x="901" d="M41 244q20 190 166 358q139 162 321 225q41 14 82 15q119 0 172 -92q-6 -18 -6 -33q0 -35 47 -77t43 -83q-20 -190 -132.5 -342t-291.5 -229q-37 -20 -69 -21q-39 0 -92 31q-63 37 -86 45q-25 -4 -66 2q-84 74 -88 201zM236 152q2 -47 51 -48q12 0 24 7q242 133 359 444 q6 16 -17 25q-27 10 -88 -37q4 31 33 59q25 20 51 43q6 2 6 8q2 6 -6 9q-45 -2 -149 -76q-240 -213 -264 -434zM348 973q0 86 70 86l358 -43l4 4q-66 45 -65 65q0 25 24 25q31 0 85.5 -53.5t54.5 -100.5q0 -78 -78 -77q-37 0 -173.5 22.5t-174.5 22.5q45 -43 45 -54 q0 -18 -19 -18q-14 0 -51 27q-51 37 -53 39q-27 25 -27 55z" />
<glyph unicode="&#xf6;" horiz-adv-x="901" d="M41 244q20 190 166 358q139 162 321 225q41 14 82 15q119 0 172 -92q-6 -18 -6 -33q0 -35 47 -77t43 -83q-20 -190 -132.5 -342t-291.5 -229q-37 -20 -69 -21q-39 0 -92 31q-63 37 -86 45q-25 -4 -66 2q-84 74 -88 201zM236 152q2 -47 51 -48q12 0 24 7q242 133 359 444 q6 16 -17 25q-27 10 -88 -37q4 31 33 59q25 20 51 43q6 2 6 8q2 6 -6 9q-45 -2 -149 -76q-240 -213 -264 -434zM383 952q2 41 35 88q43 61 104 52q98 -17 92 -64q-6 -49 -32 -92q-35 -55 -82 -55q-41 0 -76 16q-43 20 -41 55zM772 952q2 41 35 88q43 61 104 52 q99 -17 93 -64q-6 -49 -33 -92q-35 -55 -82 -55q-41 0 -76 16q-43 20 -41 55z" />
<glyph unicode="&#xf8;" horiz-adv-x="901" d="M41 244q20 190 166 358q139 162 321 225q41 14 84 15q94 0 150 -64q68 63 82 58q6 -4 6 -9q0 -6 -11.5 -21t-13.5 -22q-4 -16 -49 -71q0 -31 47 -73t43 -83q-20 -190 -132.5 -342t-291.5 -229q-37 -20 -69 -21q-37 0 -107 39q-35 -66 -65 -137q0 -6 -2 -10q-57 2 -54 67 q2 39 41 119q-20 -2 -57 0q-84 74 -88 201zM236 152q0 -2 2 -7v-8q86 139 213 297q92 115 198 228q-45 -2 -149 -76q-240 -213 -264 -434zM330 121q227 131 340 434q4 12 -8 20q-137 -162 -230 -294q-49 -70 -102 -160z" />
<glyph unicode="&#xf9;" d="M49 119q-14 303 299 665q39 45 86 45q25 2 55 -10q25 -12 52 -24q6 -4 20 -2l23 2q10 0 8 -7q-14 -41 -62 -96q-49 -63 -65 -98q-70 -115 -195 -356q2 -18 19 -19q18 0 35 14q92 82 286 287q180 188 287 277q4 2 8 2q27 0 77 -34t50 -48q-18 -127 -119 -297 q-133 -227 -155 -281q-47 -88 -31 -100q12 -6 27 -6q23 0 51 20q23 18 44 34.5t64 43.5q-115 -190 -239 -178q-8 0 -24.5 23.5t-43.5 33.5q-70 25 -63 96q6 68 32 144q0 25 -28 -6q-70 -78 -139 -156q-80 -78 -172 -98q-27 -6 -45.5 15.5t-36.5 41.5q-33 12 -64 27 q-37 16 -41 45zM492 1047q0 14 8 51q16 76 72 67q29 -4 59 -22q102 -55 254 -152q43 -35 39 -86q-2 -16 -21 -16q-10 0 -79 29q-133 55 -258 81q-74 16 -74 48z" />
<glyph unicode="&#xfa;" d="M49 119q-14 303 299 665q39 45 86 45q25 2 55 -10q25 -12 52 -24q6 -4 20 -2l23 2q10 0 8 -7q-14 -41 -62 -96q-49 -63 -65 -98q-70 -115 -195 -356q2 -18 19 -19q18 0 35 14q92 82 286 287q180 188 287 277q4 2 8 2q27 0 77 -34t50 -48q-18 -127 -119 -297 q-133 -227 -155 -281q-47 -88 -31 -100q12 -6 27 -6q23 0 51 20q23 18 44 34.5t64 43.5q-115 -190 -239 -178q-8 0 -24.5 23.5t-43.5 33.5q-70 25 -63 96q6 68 32 144q0 25 -28 -6q-70 -78 -139 -156q-80 -78 -172 -98q-27 -6 -45.5 15.5t-36.5 41.5q-33 12 -64 27 q-37 16 -41 45zM624 905q-4 51 40 87t253 151q31 18 60 22q55 9 71 -67q8 -37 8 -51q0 -31 -73 -48q-125 -27 -258 -81q-70 -29 -80 -29q-18 0 -21 16z" />
<glyph unicode="&#xfb;" d="M49 119q-14 303 299 665q39 45 86 45q25 2 55 -10q25 -12 52 -24q6 -4 20 -2l23 2q10 0 8 -7q-14 -41 -62 -96q-49 -63 -65 -98q-70 -115 -195 -356q2 -18 19 -19q18 0 35 14q92 82 286 287q180 188 287 277q4 2 8 2q27 0 77 -34t50 -48q-18 -127 -119 -297 q-133 -227 -155 -281q-47 -88 -31 -100q12 -6 27 -6q23 0 51 20q23 18 44 34.5t64 43.5q-115 -190 -239 -178q-8 0 -24.5 23.5t-43.5 33.5q-70 25 -63 96q6 68 32 144q0 25 -28 -6q-70 -78 -139 -156q-80 -78 -172 -98q-27 -6 -45.5 15.5t-36.5 41.5q-33 12 -64 27 q-37 16 -41 45zM460 907q0 68 115 107q199 88 256 88q35 0 105 -74q63 -68 63 -80q0 -31 -34 -52.5t-46 -14.5q-14 8 -78 67q-49 45 -82 45q-18 0 -221 -88q-61 -25 -61 -24q-16 0 -17 26z" />
<glyph unicode="&#xfc;" d="M49 119q-14 303 299 665q39 45 86 45q25 2 55 -10q25 -12 52 -24q6 -4 20 -2l23 2q10 0 8 -7q-14 -41 -62 -96q-49 -63 -65 -98q-70 -115 -195 -356q2 -18 19 -19q18 0 35 14q92 82 286 287q180 188 287 277q4 2 8 2q27 0 77 -34t50 -48q-18 -127 -119 -297 q-133 -227 -155 -281q-47 -88 -31 -100q12 -6 27 -6q23 0 51 20q23 18 44 34.5t64 43.5q-115 -190 -239 -178q-8 0 -24.5 23.5t-43.5 33.5q-70 25 -63 96q6 68 32 144q0 25 -28 -6q-70 -78 -139 -156q-80 -78 -172 -98q-27 -6 -45.5 15.5t-36.5 41.5q-33 12 -64 27 q-37 16 -41 45zM426 952q2 41 35 88q43 61 104 52q98 -17 92 -64q-6 -49 -32 -92q-35 -55 -82 -55q-41 0 -76 16q-43 20 -41 55zM815 952q2 41 35 88q43 61 104 52q99 -17 93 -64q-6 -49 -33 -92q-35 -55 -82 -55q-41 0 -76 16q-43 20 -41 55z" />
<glyph unicode="&#xfd;" horiz-adv-x="1003" d="M47 186q0 47 19 115q16 55 32 109q127 279 299 405q59 23 95 10q47 -43 86 -39q6 0 6 -6q0 -18 -99 -164q-115 -164 -143 -225q-23 -43 -47 -86q-25 -51 -29 -92q18 -23 56 6q113 86 251 244q115 133 232 266q18 14 37.5 29.5t36.5 15.5q6 0 12 -2q33 -31 65 -61 q37 -39 37 -74q0 -22 -14 -47q-219 -643 -594 -1051q-53 -57 -145 -57q-31 0 -62 6q-98 20 -108 88q0 12 -4 62q-4 39 -5 63q0 82 37 125q0 -41 8 -129q10 -61 54 -55q31 6 65 36q25 27 51 54q170 205 304 473q2 6 -5 6q-6 2 -15 -2t-13 -10q-119 -135 -260 -211 q-18 -10 -33 -11q-25 0 -50.5 23t-47.5 43q-14 12 -36 12t-28 6q-45 49 -45 125zM581 905q-4 51 40 87t253 151q31 18 60 22q55 9 71 -67q8 -37 8 -51q0 -31 -73 -48q-125 -27 -258 -81q-70 -29 -80 -29q-18 0 -21 16z" />
<glyph unicode="&#xff;" horiz-adv-x="1003" d="M47 186q0 47 19 115q16 55 32 109q127 279 299 405q59 23 95 10q47 -43 86 -39q6 0 6 -6q0 -18 -99 -164q-115 -164 -143 -225q-23 -43 -47 -86q-25 -51 -29 -92q18 -23 56 6q113 86 251 244q115 133 232 266q18 14 37.5 29.5t36.5 15.5q6 0 12 -2q33 -31 65 -61 q37 -39 37 -74q0 -22 -14 -47q-219 -643 -594 -1051q-53 -57 -145 -57q-31 0 -62 6q-98 20 -108 88q0 12 -4 62q-4 39 -5 63q0 82 37 125q0 -41 8 -129q10 -61 54 -55q31 6 65 36q25 27 51 54q170 205 304 473q2 6 -5 6q-6 2 -15 -2t-13 -10q-119 -135 -260 -211 q-18 -10 -33 -11q-25 0 -50.5 23t-47.5 43q-14 12 -36 12t-28 6q-45 49 -45 125zM426 952q2 41 35 88q43 61 104 52q98 -17 92 -64q-6 -49 -32 -92q-35 -55 -82 -55q-41 0 -76 16q-43 20 -41 55zM815 952q2 41 35 88q43 61 104 52q99 -17 93 -64q-6 -49 -33 -92 q-35 -55 -82 -55q-41 0 -76 16q-43 20 -41 55z" />
<glyph unicode="&#x152;" horiz-adv-x="1904" d="M20 342q0 127 54 289q270 598 760 729q141 4 204 -66q57 61 107 90q0 -6 -7.5 -26.5t-7.5 -32.5q0 -18 17 -33q84 -10 184 -10q80 0 237.5 9t233.5 9q86 0 158 -8q2 -6 2 -10q0 -10 -17.5 -23.5t-19.5 -25.5q-12 -39 -27 -78q-18 -47 -48.5 -58.5t-135.5 -35.5 q-66 4 -190 -10q-145 -18 -195 -21q-14 0 -12 -20q4 -31 4 -33q-29 -68 -88 -205q-10 -16 -6 -20q2 -4 20 -2q31 -4 70 -5q33 0 98.5 3.5t95.5 3.5q63 0 103 -9q-2 0 -35 -98q-29 -86 -90 -98q-80 -16 -209 -27q-145 -10 -209 -20q-82 -119 -108 -238q-8 -31 69 -33 q23 0 94 7q254 25 344 24q80 0 142 -10l2 -2q0 -2 -16.5 -18.5t-20.5 -30.5q-10 -41 -21 -80q-16 -49 -51 -62q-295 -59 -440 -59q-86 0 -170 12q-35 6 -57.5 26.5t-34.5 49.5q-16 37 -17 37l-2 2q-33 -31 -104 -90q-113 -80 -227 -80q-39 0 -74 10q-4 2 -25.5 24.5 t-63.5 26.5t-81 7q-45 6 -72 28q-117 102 -117 291zM276 324q0 -70 3 -82q8 -43 45 -62q20 -4 41 -4q96 0 184 76q57 47 139 156q213 281 215 532q-16 16 -43 12q-20 -4 -56 -28.5t-54 -26.5q24 92 198 188q8 4 6 11q0 4 -6 4q-20 6 -43 6q-76 0 -205 -90 q-365 -307 -424 -692z" />
<glyph unicode="&#x153;" horiz-adv-x="1392" d="M41 244q20 190 166 358q139 162 321 225q41 14 82 15q119 0 172 -92q-18 -49 15 -84q156 131 352 172q66 14 149 -68q74 -70 74 -90q23 -203 -213 -350q-66 -41 -166 -39q-27 0 -59.5 30.5t-48.5 65.5q-10 23 -23 23q-12 0 -24.5 -15.5t-20.5 -29.5q-14 -29 -41 -84 q-31 -66 -35 -125q-2 -10 -2 -19q0 -39 35 -53q20 -4 41 -4q43 0 100 22q47 23 95 43q25 10 79 48t85 51q8 6 20 -18.5t12 -53.5q0 -14 -4 -25q-25 -53 -98 -100q-61 -37 -121 -74q-18 -6 -59 -20q-23 -10 -45 -10q-31 0 -67 21.5t-69 41.5q-20 14 -42.5 16.5t-28.5 4.5 q-41 16 -66 57q-82 -61 -164 -98q-37 -20 -69 -21q-39 0 -92 31q-63 37 -86 45q-25 -4 -66 2q-84 74 -88 201zM236 152q2 -47 51 -48q12 0 24 7q242 133 359 444q6 16 -17 25q-27 10 -88 -37q4 31 33 59q25 20 51 43q6 2 6 8q2 6 -6 9q-45 -2 -149 -76q-240 -213 -264 -434z M915 475q-16 -18 13 -47q37 -25 90 2q117 59 203 188q8 18 8 39q0 41 -35 31q-121 -35 -279 -213z" />
<glyph unicode="&#x178;" horiz-adv-x="962" d="M43 1116q31 102 156 189q39 18 88 18q57 0 104 -25q70 -51 94 -151q14 -94 29 -186q2 -68 0 -220q0 -12 4 -14q6 -4 12 4q37 45 246 318q147 190 260 299q20 0 33 -27q18 -33 25 -39q33 -27 32 -82q0 -41 -16 -84q-104 -201 -326 -489q-264 -342 -344 -469 q-37 -72 -37 -95t15 -40q10 -2 20 -3q29 0 64 19q27 16 55 33q-6 -49 -65 -88q-53 -29 -106.5 -57.5t-117.5 -12.5q-127 94 -127 199q0 16 2 32q33 88 168 295q-35 262 -53 369q-37 205 -88 356q-6 16 -31 17q-23 0 -39 -17q-8 -12 -57 -49zM397 1511q2 41 35 88 q43 61 104 52q98 -17 92 -64q-6 -49 -32 -92q-35 -55 -82 -55q-41 0 -76 16q-43 20 -41 55zM786 1511q2 41 35 88q43 61 104 52q99 -17 93 -64q-6 -49 -33 -92q-35 -55 -82 -55q-41 0 -76 16q-43 20 -41 55z" />
<glyph unicode="&#x2c6;" horiz-adv-x="737" d="M317 907q0 68 115 107q199 88 256 88q35 0 105 -74q63 -68 63 -80q0 -31 -34 -52.5t-46 -14.5q-14 8 -78 67q-49 45 -82 45q-18 0 -221 -88q-61 -25 -61 -24q-16 0 -17 26z" />
<glyph unicode="&#x2dc;" horiz-adv-x="716" d="M90 973q0 86 70 86l358 -43l4 4q-66 45 -65 65q0 25 24 25q31 0 85.5 -53.5t54.5 -100.5q0 -78 -78 -77q-37 0 -173.5 22.5t-174.5 22.5q45 -43 45 -54q0 -18 -19 -18q-14 0 -51 27q-51 37 -53 39q-27 25 -27 55z" />
<glyph unicode="&#x2000;" horiz-adv-x="858" />
<glyph unicode="&#x2001;" horiz-adv-x="1716" />
<glyph unicode="&#x2002;" horiz-adv-x="858" />
<glyph unicode="&#x2003;" horiz-adv-x="1716" />
<glyph unicode="&#x2004;" horiz-adv-x="572" />
<glyph unicode="&#x2005;" horiz-adv-x="429" />
<glyph unicode="&#x2006;" horiz-adv-x="286" />
<glyph unicode="&#x2007;" horiz-adv-x="286" />
<glyph unicode="&#x2008;" horiz-adv-x="214" />
<glyph unicode="&#x2009;" horiz-adv-x="343" />
<glyph unicode="&#x200a;" horiz-adv-x="95" />
<glyph unicode="&#x2010;" horiz-adv-x="696" d="M80 467q6 109 88 164q-10 -43 -4 -51q27 -18 78 -19q31 4 59 6q41 6 102 13q51 6 103 12q53 6 98 -2q-27 -119 -194 -154q-145 -31 -197 -30q-82 0 -90 2q-45 10 -43 59z" />
<glyph unicode="&#x2011;" horiz-adv-x="696" d="M80 467q6 109 88 164q-10 -43 -4 -51q27 -18 78 -19q31 4 59 6q41 6 102 13q51 6 103 12q53 6 98 -2q-27 -119 -194 -154q-145 -31 -197 -30q-82 0 -90 2q-45 10 -43 59z" />
<glyph unicode="&#x2012;" horiz-adv-x="696" d="M80 467q6 109 88 164q-10 -43 -4 -51q27 -18 78 -19q31 4 59 6q41 6 102 13q51 6 103 12q53 6 98 -2q-27 -119 -194 -154q-145 -31 -197 -30q-82 0 -90 2q-45 10 -43 59z" />
<glyph unicode="&#x2013;" horiz-adv-x="1413" d="M0 428v162h1413v-162h-1413z" />
<glyph unicode="&#x2014;" horiz-adv-x="1843" d="M0 428v162h1843v-162h-1843z" />
<glyph unicode="&#x2018;" horiz-adv-x="552" d="M285 1040q0 37 29.5 105.5t56.5 99.5q74 88 121 113q22 10 69 10q-59 -74 -84 -127q70 -23 70 -63q0 -57 -55.5 -118t-114.5 -61q-92 0 -92 41z" />
<glyph unicode="&#x2019;" horiz-adv-x="552" d="M287 999q59 74 84 127q-70 23 -70 64q0 57 55.5 117.5t114.5 60.5q92 0 92 -41q0 -37 -29.5 -105.5t-56.5 -99.5q-74 -88 -121 -112q-23 -10 -69 -11z" />
<glyph unicode="&#x201a;" horiz-adv-x="552" d="M88 -106q57 68 84 124q-72 20 -72 64q0 57 56.5 117.5t113.5 60.5q95 0 95 -41q0 -37 -31 -105.5t-55 -99.5q-72 -90 -121 -112q-20 -8 -70 -8z" />
<glyph unicode="&#x201c;" horiz-adv-x="737" d="M244 1040q0 37 29.5 105.5t56.5 99.5q74 88 121 113q22 10 69 10q-59 -74 -84 -127q70 -23 70 -63q0 -57 -55.5 -118t-114.5 -61q-92 0 -92 41zM530 1040q0 37 30 105.5t56 99.5q74 88 121 113q23 10 70 10q-59 -74 -84 -127q70 -23 70 -63q0 -57 -55.5 -118t-114.5 -61 q-92 0 -93 41z" />
<glyph unicode="&#x201d;" horiz-adv-x="737" d="M246 999q59 74 84 127q-70 23 -70 64q0 57 55.5 117.5t114.5 60.5q92 0 92 -41q0 -37 -29.5 -105.5t-56.5 -99.5q-74 -88 -121 -112q-23 -10 -69 -11zM532 999q59 74 84 127q-70 23 -69 64q0 57 55 117.5t115 60.5q92 0 92 -41q0 -37 -29.5 -105.5t-56.5 -99.5 q-74 -88 -121 -112q-23 -10 -70 -11z" />
<glyph unicode="&#x201e;" horiz-adv-x="552" d="M88 -106q57 68 84 124q-72 20 -72 64q0 57 56.5 117.5t113.5 60.5q95 0 95 -41q0 -37 -31 -105.5t-55 -99.5q-72 -90 -121 -112q-20 -8 -70 -8zM389 -106q57 68 84 124q-72 20 -72 64q0 57 56.5 117.5t113.5 60.5q95 0 95 -41q0 -37 -31 -105.5t-55 -99.5 q-72 -90 -121 -112q-20 -8 -70 -8z" />
<glyph unicode="&#x2022;" horiz-adv-x="1024" d="M180 662q-2 145 99.5 248.5t244.5 105.5q145 2 249 -101.5t106 -246.5q2 -145 -99.5 -248t-244.5 -105q-145 -2 -249 100.5t-106 246.5z" />
<glyph unicode="&#x2026;" horiz-adv-x="1843" d="M170 68q0 57 47 125q53 76 119 75q10 0 20 -2q51 -10 56 -12q34 -12 34 -47q-53 -227 -161 -215q-115 12 -115 76zM782 68q0 61 54 133q61 80 133 65q51 -10 55 -12q35 -12 35 -47q-51 -227 -160 -215q-117 12 -117 76zM1397 68q0 61 53 133q61 80 133 65q51 -10 55 -12 q35 -12 35 -47q-51 -227 -160 -215q-117 12 -116 76z" />
<glyph unicode="&#x202f;" horiz-adv-x="343" />
<glyph unicode="&#x205f;" horiz-adv-x="429" />
<glyph unicode="&#x2122;" horiz-adv-x="1576" d="M82 631q0 41 65 186q25 57 103 215q63 127 61 129q-2 0 -118 10q-72 4 -95 62q-8 20 13.5 64t52.5 69q4 2 6 -27q2 -8 6 -8q70 -2 182 4q127 6 177 6q83 0 157 -10q-10 -27 -12 -86q-14 -37 -90 -49q-66 -8 -129 -16q-8 -2 -8 -27q0 -33 -2 -37q-33 -90 -105 -242 q-80 -170 -108 -241q-8 -31 20 -31q27 12 76 35q-23 -41 -71 -78t-73 -33q-72 12 -104 84q-4 8 -4 21zM434 647q135 326 408 641q53 35 69 35q12 0 25 -6q16 -4 42 8t42 13t35 1q23 0 18 -22q-14 -82 -49 -207q-49 -174 -55 -197q-2 -10 0 -14q2 -6 6 2q135 166 199 236 q119 127 227 200q49 33 82 19q14 -8 22 -27.5t15 -25.5q37 -42 8 -99q-72 -141 -144 -280q-82 -166 -114 -293q-4 -8 2 -14.5t16 -4.5q12 0 31.5 11.5t26.5 13.5q-27 -51 -101 -96q-14 -8 -31 -9q-35 0 -69 33q-25 25 -25 68q0 20 25 127q63 154 139 287q-2 4 -2 6 q-6 0 -12 -6q-190 -248 -400 -502q-23 -8 -51 24q-12 18 -25.5 22.5t-15.5 6.5q-10 33 -10 74q0 53 18 127q12 55 28.5 111.5t41.5 166.5q-2 4 -12 0q-39 -57 -197 -336q-131 -236 -141 -227q-18 25 -68 51q-18 4 -4 82z" />
<glyph unicode="&#x25fc;" horiz-adv-x="880" d="M0 0v881h881v-881h-881z" />
</font>
</defs>
</svg>
